<svg xmlns="http://www.w3.org/2000/svg" width="30" height="30" viewBox="0 0 30 30"><defs><style>.a{fill:rgba(255,255,255,0);}.b{fill:#fff;}</style></defs><g transform="translate(-5976 824)"><rect class="a" width="30" height="30" transform="translate(5976 -824)"/><path class="b" d="M4.817,3.9v-2.8a1.095,1.095,0,0,1,2.19,0V3.9a1.095,1.095,0,0,1-2.19,0Zm9.416,1.095A1.084,1.084,0,0,0,15.328,3.9v-2.8a1.095,1.095,0,0,0-2.19,0V3.9A1.084,1.084,0,0,0,14.233,4.993Zm5.912-2.5V17.3a.878.878,0,0,1-.876.876H.876A.878.878,0,0,1,0,17.3V2.5a.958.958,0,0,1,.876-.963H2.912a.876.876,0,1,1,0,1.752H1.752V7.007H18.394V3.285H17.233a.876.876,0,1,1,0-1.752H19.27A.958.958,0,0,1,20.146,2.5ZM18.394,16.423V8.54H1.752v7.883ZM8.693,3.285h2.759a.876.876,0,0,0,0-1.752H8.693a.876.876,0,0,0,0,1.752Z" transform="translate(5980.259 -818.775)"/></g></svg>