<svg xmlns="http://www.w3.org/2000/svg" width="30" height="30" viewBox="0 0 30 30"><defs><style>.a{fill:rgba(255,255,255,0);}.b{fill:#fff;}</style></defs><g transform="translate(-5975 554)"><rect class="a" width="30" height="30" transform="translate(5975 -554)"/><path class="b" d="M972.363,3806.14l-2.72,8.6a1.442,1.442,0,0,1-1.384,1.005H957.747a1.508,1.508,0,0,1-1.4-.935l-4-10.77h-2.323a1.018,1.018,0,1,1,0-2.035h3.026a1.051,1.051,0,0,1,.955.684l4.154,11.021h9.677l2.175-6.87H958.011a1.018,1.018,0,1,1,0-2.035h13.382a1.037,1.037,0,0,1,.82.432A1.021,1.021,0,0,1,972.363,3806.14Zm-14.1,10.959a1.672,1.672,0,0,0-1.17.48,1.639,1.639,0,0,0,0,2.325,1.663,1.663,0,0,0,2.338,0,1.642,1.642,0,0,0-1.168-2.8Zm9.132,0a1.667,1.667,0,0,0-1.17.48,1.639,1.639,0,0,0,0,2.325,1.649,1.649,0,1,0,1.17-2.8Z" transform="translate(5028.462 -4350.422)"/></g></svg>