<svg xmlns="http://www.w3.org/2000/svg" width="30" height="30" viewBox="0 0 30 30"><defs><style>.a{fill:rgba(255,255,255,0);}.b{fill:#fff;}</style></defs><g transform="translate(-5976 703)"><rect class="a" width="30" height="30" transform="translate(5976 -703)"/><path class="b" d="M10.378,12.2A6.1,6.1,0,1,0,4.309,6.091,6.09,6.09,0,0,0,10.378,12.2Zm0-10.4A4.286,4.286,0,1,1,6.114,6.091,4.28,4.28,0,0,1,10.378,1.8ZM13.2,12.791a.907.907,0,0,0-.857.18l-1.963,1.669L8.415,12.972a.919.919,0,0,0-.857-.18C6.294,13.2,0,15.363,0,18.5a.905.905,0,0,0,.9.9h18.95a.905.905,0,0,0,.9-.9C20.755,15.363,14.461,13.2,13.2,12.791ZM2.279,17.6a15.39,15.39,0,0,1,5.369-2.91l2.143,1.827a.892.892,0,0,0,1.173,0l2.143-1.827a16.159,16.159,0,0,1,5.369,2.91Z" transform="translate(5980.001 -698.783)"/></g></svg>