<svg xmlns="http://www.w3.org/2000/svg" width="15.649" height="16.559" viewBox="0 0 15.649 16.559"><defs><style>.a{fill:#dcb9e7;}</style></defs><path class="a" d="M13.721,5.35l-.564,10.518a.736.736,0,0,1-.728.691H3.221a.736.736,0,0,1-.728-.691L1.929,5.35a.729.729,0,0,1,1.456-.073L3.912,15.1h7.843l.528-9.826a.72.72,0,1,1,1.438.073Zm1.929-2.438a.73.73,0,0,1-.728.728H.728a.728.728,0,1,1,0-1.456h4V.546A.526.526,0,0,1,5.314,0h5.022a.526.526,0,0,1,.582.546V2.184h4A.73.73,0,0,1,15.649,2.912ZM6.005,2.184H9.644v-.91H6.005Zm.309,11.828h0a.681.681,0,0,0,.637-.691L6.769,5.459a.649.649,0,0,0-.655-.637.622.622,0,0,0-.619.655l.182,7.879A.661.661,0,0,0,6.314,14.012Zm3,0a.645.645,0,0,0,.637-.637l.182-7.861a.637.637,0,1,0-1.274-.036L8.68,13.338a.642.642,0,0,0,.637.673Z"/></svg>