<svg xmlns="http://www.w3.org/2000/svg" width="21" height="16" viewBox="0 0 21 16">
  <g id="Group_7062" data-name="Group 7062" transform="translate(-21 -302)">
    <path id="XMLID_1_" d="M1.68,3.36a1.753,1.753,0,0,1-1.2-.5A1.782,1.782,0,0,1,0,1.68,1.894,1.894,0,0,1,.48.48,1.687,1.687,0,0,1,1.68,0,1.782,1.782,0,0,1,2.856.48a1.8,1.8,0,0,1,.5,1.2A1.723,1.723,0,0,1,1.68,3.36Zm7.176-.5a1.7,1.7,0,0,0,.5-1.176,1.8,1.8,0,0,0-.5-1.2A1.672,1.672,0,0,0,7.68,0a1.843,1.843,0,0,0-1.2.48A1.687,1.687,0,0,0,6,1.68a1.782,1.782,0,0,0,.48,1.176,1.652,1.652,0,0,0,2.376,0Zm6,0a1.7,1.7,0,0,0,.5-1.176,1.8,1.8,0,0,0-.5-1.2A1.672,1.672,0,0,0,13.68,0a1.843,1.843,0,0,0-1.2.48A1.687,1.687,0,0,0,12,1.68a1.782,1.782,0,0,0,.48,1.176,1.652,1.652,0,0,0,2.376,0Z" transform="translate(23.643 308)" fill="#fff"/>
    <rect id="Rectangle_3226" data-name="Rectangle 3226" width="21" height="16" transform="translate(21 302)" fill="none"/>
  </g>
</svg>
