<svg xmlns="http://www.w3.org/2000/svg" width="13.74" height="19.153" viewBox="0 0 13.74 19.153">
  <path id="Path_11183" data-name="Path 11183" d="M2083.543,1128.653a7.434,7.434,0,0,0-9.347,0,7.27,7.27,0,0,0-2.2,5.63c0,5.233,6.023,11.366,6.279,11.624a.833.833,0,0,0,1.183,0c.256-.259,6.279-6.391,6.279-11.624A7.27,7.27,0,0,0,2083.543,1128.653Zm-4.674,15.447a32.117,32.117,0,0,1-2.337-2.921c-1.875-2.66-2.867-5.044-2.867-6.9,0-5.212,3.984-5.617,5.2-5.617,4.829,0,5.2,4.3,5.2,5.617C2084.075,1137.948,2080.345,1142.458,2078.869,1144.1Zm0-13.508a3.367,3.367,0,1,0,3.315,3.367A3.345,3.345,0,0,0,2078.87,1130.592Zm0,5.277a1.91,1.91,0,1,1,1.857-1.91A1.886,1.886,0,0,1,2078.87,1135.869Z" transform="translate(-2072 -1127)" fill="#dabbe3"/>
</svg>
