<svg xmlns="http://www.w3.org/2000/svg" width="16.369" height="14.346" viewBox="0 0 16.369 14.346">
  <path id="Path_11202" data-name="Path 11202" d="M2509.332,1801.287a.92.92,0,0,1,.92-.92h10.2a.92.92,0,1,1,0,1.839h-10.2A.92.92,0,0,1,2509.332,1801.287Zm11.117,4.966h-10.2a.92.92,0,1,0,0,1.839h10.2a.92.92,0,1,0,0-1.839Zm0,5.885h-10.2a.92.92,0,1,0,0,1.839h10.2a.92.92,0,1,0,0-1.839Zm-14.166-6.177a1.3,1.3,0,1,0,1.283,1.3A1.294,1.294,0,0,0,2506.283,1805.962Zm0-5.962a1.3,1.3,0,1,0,1.283,1.3A1.294,1.294,0,0,0,2506.283,1800Zm0,11.737a1.3,1.3,0,1,0,1.283,1.3A1.294,1.294,0,0,0,2506.283,1811.737Z" transform="translate(-2505 -1800)" fill="#d9bce2"/>
</svg>
