<svg xmlns="http://www.w3.org/2000/svg" viewBox="0 0 150.64 63.62"><defs><style>.cls-1{fill:#ad7ac2;}</style></defs><g id="Layer_2" data-name="Layer 2"><g id="Layer_1-2" data-name="Layer 1"><path class="cls-1" d="M150.56,3.62a2.73,2.73,0,0,0,.05-.4c0-.11,0-.21,0-.31s0-.23,0-.34a3.18,3.18,0,0,0,0-.34L150.48,2a3.65,3.65,0,0,0-.14-.35s0-.05,0-.07-.08-.11-.12-.18a2.92,2.92,0,0,0-.21-.28,1.61,1.61,0,0,0-.22-.23,2.43,2.43,0,0,0-.25-.2,2.68,2.68,0,0,0-.28-.18l-.29-.14a2.13,2.13,0,0,0-.33-.11l-.32-.08a2.71,2.71,0,0,0-.4,0,1.75,1.75,0,0,0-.24,0L69.26,0,69,0l-.42,0-.36.08-.38.11a2.17,2.17,0,0,0-.35.15,2.48,2.48,0,0,0-.37.17l-.33.2a3.88,3.88,0,0,0-.33.23l-.34.28-.21.18-.06.07c-.1.11-.2.23-.29.35s-.15.18-.22.28-.13.22-.2.33-.13.23-.18.35a2.85,2.85,0,0,0-.12.31c0,.13-.1.27-.14.4s0,.05,0,.08L51.77,59.92a2.85,2.85,0,0,0,2.9,3.64l78.39.06A4.9,4.9,0,0,0,137.63,60L150.55,3.7A.22.22,0,0,0,150.56,3.62ZM134.7,7.32l-34.21,27.4L78.89,7.27Zm-74.63,49L70.51,10.86l26.05,31.3a3.15,3.15,0,0,0,2.06.72,4.57,4.57,0,0,0,2.39-.72l40.42-31.25L131,56.35Z"/><g id="Group_118" data-name="Group 118"><path class="cls-1" d="M43,33H3.14a3.14,3.14,0,0,1,0-6.28H43A3.14,3.14,0,1,1,43,33Z"/><path class="cls-1" d="M44,15.06H20.08a3.14,3.14,0,1,1,0-6.28H44a3.14,3.14,0,0,1,0,6.28Z"/><path class="cls-1" d="M27.06,50.94H3.14a3.14,3.14,0,0,1,0-6.28H27.06a3.14,3.14,0,1,1,0,6.28Z"/></g></g></g></svg>