<svg xmlns="http://www.w3.org/2000/svg" viewBox="0 0 86.11 92"><defs><style>.cls-1{fill:#ad7ac2;}</style></defs><g id="Layer_2" data-name="Layer 2"><g id="Layer_1-2" data-name="Layer 1"><path class="cls-1" d="M54.37,92C42,92,22.47,87.89,17.65,84.47A4,4,0,0,1,16,81.21V42.11A4,4,0,0,1,17.49,39a121.67,121.67,0,0,1,14.64-9.76c9.1-5,15.38-12,16.87-16.4C50.85,7.4,53.37,0,61.57,0a9.38,9.38,0,0,1,8.77,6c3.4,7.76-.18,18.55-6.16,27.08,4,.94,9,2.17,11.95,3.09,5.46,1.71,9.15,5.65,9.86,10.55s-1.84,10.08-7.09,14C75.05,71.22,68.31,87.85,63.42,90.57,61.61,91.58,58.35,92,54.37,92ZM24,78.84c7.64,3.2,31,6.54,35.42,4.77,2.35-2.12,8.24-15.45,12.34-26.77a4.07,4.07,0,0,1,1.55-2c3.32-2.22,5-4.76,4.72-7-.26-1.78-1.87-3.3-4.31-4.07-5-1.58-17.44-4.31-17.56-4.34a4,4,0,0,1-2.08-6.63c9-9.68,10.63-19.65,8.89-23.63C62.43,8,61.87,8,61.57,8c-2,0-2.91,1.38-5,7.38-2.4,7-10.68,15.39-20.6,20.84a109.71,109.71,0,0,0-12,7.87ZM8.18,81.55V41.64c0-3.59-1.83-5.12-4.09-5.12S0,38.05,0,41.64V81.55c0,3.59,1.83,4.82,4.09,4.82S8.18,85.14,8.18,81.55Z"/></g></g></svg>