<svg xmlns="http://www.w3.org/2000/svg" viewBox="0 0 92 63.99"><defs><style>.cls-1{fill:#ad7ac2;}</style></defs><g id="Layer_2" data-name="Layer 2"><g id="Layer_1-2" data-name="Layer 1"><path class="cls-1" d="M92,41.48a4,4,0,0,1-1.18,2.83L72.21,62.86A4,4,0,0,1,69.38,64a4,4,0,0,1-2.83-1.25,4.17,4.17,0,0,1,0-5.79L78.31,45H39.24a4,4,0,0,1,0-8H78.31L66.56,25.52a3.72,3.72,0,0,1,0-5.42,4,4,0,0,1,5.66,0L90.82,38.64A4,4,0,0,1,92,41.48ZM13.69,27H52.76a4,4,0,0,0,0-8H13.69L25.44,7a4.17,4.17,0,0,0,0-5.79,4,4,0,0,0-5.66-.08L1.18,19.66a4,4,0,0,0,0,5.66L19.79,43.88a4,4,0,0,0,5.66,0,3.72,3.72,0,0,0,0-5.42Z"/></g></g></svg>