<svg xmlns="http://www.w3.org/2000/svg" width="16.649" height="19.153" viewBox="0 0 16.649 19.153">
  <g id="Group_6907" data-name="Group 6907" transform="translate(-2062.649 -1127)">
    <g id="Group_6906" data-name="Group 6906" transform="translate(2064.596 1127)">
      <path id="Path_11184" data-name="Path 11184" d="M2092.4,1157.048a3.256,3.256,0,0,0,1.791-.538l-1.07-1.069a1.8,1.8,0,0,1-.721.15,1.886,1.886,0,0,1-1.857-1.91,1.945,1.945,0,0,1,.128-.691l-1.083-1.083a3.383,3.383,0,0,0-.5,1.773A3.345,3.345,0,0,0,2092.4,1157.048Z" transform="translate(-2085.525 -1146.722)" fill="#dabbe3"/>
      <path id="Path_11185" data-name="Path 11185" d="M2084.437,1129.72a5.61,5.61,0,0,1,3.339-1.054c4.829,0,5.2,4.3,5.2,5.617a8.451,8.451,0,0,1-.757,3.223l1.256,1.256a10.77,10.77,0,0,0,1.167-4.479,7.27,7.27,0,0,0-2.2-5.63,7.45,7.45,0,0,0-9.2-.122Z" transform="translate(-2080.906 -1127)" fill="#dabbe3"/>
      <path id="Path_11186" data-name="Path 11186" d="M2097.872,1144.253a3.258,3.258,0,0,0-1.874.593l1.06,1.06a1.8,1.8,0,0,1,.814-.2,1.886,1.886,0,0,1,1.857,1.91,1.938,1.938,0,0,1-.168.789l1.071,1.071a3.384,3.384,0,0,0,.554-1.86A3.345,3.345,0,0,0,2097.872,1144.253Z" transform="translate(-2091.002 -1140.661)" fill="#dabbe3"/>
      <path id="Path_11187" data-name="Path 11187" d="M2082.686,1148.421a29.051,29.051,0,0,1-3.817,5.286,32.121,32.121,0,0,1-2.337-2.921c-1.875-2.66-2.867-5.044-2.867-6.9a6.222,6.222,0,0,1,.928-3.562l-1.195-1.195a7.815,7.815,0,0,0-1.4,4.756c0,5.234,6.023,11.366,6.279,11.624a.833.833,0,0,0,1.183,0,31.115,31.115,0,0,0,4.448-5.871Z" transform="translate(-2072 -1136.608)" fill="#dabbe3"/>
    </g>
    <rect id="Rectangle_3199" data-name="Rectangle 3199" width="1.371" height="22.174" transform="matrix(0.707, -0.707, 0.707, 0.707, 2062.649, 1128.151)" fill="#dabbe3"/>
  </g>
</svg>
