<svg xmlns="http://www.w3.org/2000/svg" width="16.741" height="15.419" viewBox="0 0 16.741 15.419"><defs><style>.a{fill:#dabbe3;}</style></defs><path class="a" d="M12.412,12.113H.853A.856.856,0,0,1,0,11.26V.853A.856.856,0,0,1,.853,0H12.412a.856.856,0,0,1,.853.853V11.26A.842.842,0,0,1,12.412,12.113ZM1.706,10.407h9.853v-8.7H1.706Z"/><path class="a" d="M28.712,27.613H17.153a.853.853,0,0,1,0-1.706H27.859V16.353a.853.853,0,1,1,1.706,0V26.76A.856.856,0,0,1,28.712,27.613Z" transform="translate(-12.824 -12.194)"/></svg>