<svg xmlns="http://www.w3.org/2000/svg" width="16.408" height="16.607" viewBox="0 0 16.408 16.607"><defs><style>.a{fill:#d8bde1;}</style></defs><path class="a" d="M16.185,3.409,4.664,15.067a.988.988,0,0,1-.275.192L1.144,16.552a1.169,1.169,0,0,1-.3.055.791.791,0,0,1-.577-.247.859.859,0,0,1-.192-.88l1.292-3.272a.629.629,0,0,1,.192-.275L13.05.247A.791.791,0,0,1,13.627,0h0A.749.749,0,0,1,14.2.247l1.98,2.007A.8.8,0,0,1,16.185,3.409Zm-1.732-.577-.825-.825L2.822,12.978,2.3,14.325l1.32-.522Z" transform="translate(-0.024)"/></svg>