<svg xmlns="http://www.w3.org/2000/svg" width="30" height="30" viewBox="0 0 30 30"><defs><style>.a{fill:none;}</style></defs><g transform="translate(-7236 5209)"><rect class="a" width="30" height="30" transform="translate(7236 -5209)"/><path d="M351.437,3298.243a1.037,1.037,0,0,0-.052-.4l-2.591-7.707a4.379,4.379,0,0,0-3.5-2.776,4.218,4.218,0,0,0-3.993-2.74,4.343,4.343,0,0,0-2.877,1.168c-.029.029-.054.061-.083.092-.028-.03-.053-.062-.083-.092a4.311,4.311,0,0,0-2.865-1.168h-.007a4.221,4.221,0,0,0-4,2.74,4.379,4.379,0,0,0-3.5,2.775l-2.4,7.151a6.061,6.061,0,1,0,11.615,3.25h2.44a6.061,6.061,0,1,0,11.9-2.293Zm-20.313,5.227a3.964,3.964,0,0,1-3.825-5.05l.129-.384a3.975,3.975,0,1,1,3.7,5.434Zm8.411-5.019h-2.44a6.058,6.058,0,0,0-8.271-4.565l1.034-3.074a2.333,2.333,0,0,1,2.31-1.42l.848-.009.175-.828a2.261,2.261,0,0,1,2.191-1.849,1.856,1.856,0,0,1,1.916,2.023c0,.021,0,.041,0,.062a1.042,1.042,0,0,0,1.043,1.042h.005a1.042,1.042,0,0,0,1.043-1.042c0-.021,0-.041,0-.062a1.855,1.855,0,0,1,1.912-2.023,2.261,2.261,0,0,1,2.194,1.841l.163.845h.86a2.333,2.333,0,0,1,2.306,1.408l1.045,3.108a6.061,6.061,0,0,0-8.327,4.543Zm5.97,5.019a3.976,3.976,0,1,1,3.977-3.976A3.981,3.981,0,0,1,345.5,3303.469Z" transform="translate(6912.639 -8489.229)"/></g></svg>