<svg xmlns="http://www.w3.org/2000/svg" width="19.833" height="14.82" viewBox="0 0 19.833 14.82"><defs><style>.a{fill:#5a1770;}</style></defs><path class="a" d="M956.72,2924.213a4.606,4.606,0,1,0-4.61-4.607A4.614,4.614,0,0,0,956.72,2924.213Zm0-7.469a2.863,2.863,0,1,1-2.866,2.863A2.868,2.868,0,0,1,956.72,2916.743Zm2.1,7.9a.872.872,0,0,0-.716.086l-1.382.838-1.382-.838a.873.873,0,0,0-.716-.086c-1.319.418-5.621,1.965-5.621,4.307a.871.871,0,0,0,.872.871h13.694a.871.871,0,0,0,.872-.871C964.439,2926.607,960.136,2925.06,958.818,2924.642Zm-7.365,3.435a13,13,0,0,1,3.326-1.65l1.49.9a.873.873,0,0,0,.9,0l1.49-.9a13.006,13.006,0,0,1,3.326,1.65Zm17.382-.645a.646.646,0,0,1-.654.645h-2.913a.654.654,0,1,1,0-1.307h1.941a4.462,4.462,0,0,0-1.5-1.137.643.643,0,0,1-.258-.879.654.654,0,0,1,.888-.258C967.272,2925.008,968.834,2926.062,968.834,2927.432Zm-3.667-5.77a1.733,1.733,0,0,0-2.405-1.593.654.654,0,0,1-.509-1.2,3.036,3.036,0,1,1-1.093,4.809.654.654,0,0,1,.979-.867,1.731,1.731,0,0,0,3.028-1.144Z" transform="translate(-949.001 -2915)"/></svg>