<svg xmlns="http://www.w3.org/2000/svg" width="16.39" height="14.786" viewBox="0 0 16.39 14.786"><defs><style>.a{fill:#dcb9e7;}</style></defs><path class="a" d="M3.919,3.171V.891A.891.891,0,0,1,5.7.891v2.28a.891.891,0,0,1-1.781,0Zm7.66.891a.882.882,0,0,0,.891-.891V.891a.891.891,0,0,0-1.781,0v2.28A.882.882,0,0,0,11.58,4.062Zm4.81-2.031V14.074a.715.715,0,0,1-.713.713H.713A.715.715,0,0,1,0,14.074V2.031a.779.779,0,0,1,.713-.784H2.369a.713.713,0,1,1,0,1.425H1.425V5.7H14.964V2.672H14.02a.713.713,0,1,1,0-1.425h1.657A.779.779,0,0,1,16.39,2.031Zm-1.425,11.33V6.948H1.425v6.413ZM7.072,2.672H9.317a.713.713,0,0,0,0-1.425H7.072a.713.713,0,0,0,0,1.425Z"/></svg>