<svg xmlns="http://www.w3.org/2000/svg" width="17.974" height="14.457" viewBox="0 0 17.974 14.457"><defs><style>.a{fill:#5a1770;}</style></defs><path class="a" d="M519.7,1588.322a.779.779,0,0,0-.234-.556l-7.3-7.172a.787.787,0,0,0-.5-.224l-5.827-.369a.787.787,0,0,0-.606.228.779.779,0,0,0-.228.6l.376,5.722a.779.779,0,0,0,.232.505l7.3,7.172a.789.789,0,0,0,1.1,0l5.451-5.353A.78.78,0,0,0,519.7,1588.322Zm-6.237,4.255-6.538-6.421-.3-4.539,4.641.294,6.527,6.41Zm-3.388-9.219a1.17,1.17,0,0,1,0,1.657,1.183,1.183,0,0,1-1.668,0,1.172,1.172,0,0,1,.833-2A1.193,1.193,0,0,1,510.075,1583.358Zm12.9,4.964a.683.683,0,0,1-.2.487l-5.451,5.353a.686.686,0,1,1-.966-.973l4.956-4.867-6.807-6.685a.682.682,0,0,1-.006-.967.691.691,0,0,1,.972-.006l7.3,7.172A.682.682,0,0,1,522.973,1588.322Z" transform="translate(-505 -1580)"/></svg>