<svg xmlns="http://www.w3.org/2000/svg" width="14.254" height="14.427" viewBox="0 0 14.254 14.427"><defs><style>.a{fill:#5a1770;}</style></defs><path class="a" d="M14.063,2.962,4.055,13.089a.858.858,0,0,1-.239.167L1,14.379a1.016,1.016,0,0,1-.263.048.687.687,0,0,1-.5-.215.746.746,0,0,1-.167-.764l1.123-2.842a.546.546,0,0,1,.167-.239L11.34.215a.687.687,0,0,1,.5-.215h0a.651.651,0,0,1,.5.215l1.72,1.744A.693.693,0,0,1,14.063,2.962Zm-1.5-.5-.717-.717-9.387,9.53L2,12.444l1.146-.454Z" transform="translate(-0.024)"/></svg>