<svg xmlns="http://www.w3.org/2000/svg" version="1.0" width="2362.000000pt" height="2362.000000pt" viewBox="0 0 2362.000000 2362.000000" preserveAspectRatio="xMidYMid meet">

<g transform="translate(0.000000,2362.000000) scale(0.100000,-0.100000)" fill="#ffffff" stroke="none">
<path d="M20670 21853 c-328 -41 -534 -134 -708 -318 -173 -183 -255 -417 -238 -680 14 -231 83 -395 223 -532 155 -152 345 -234 827 -359 397 -103 549 -162 645 -253 75 -69 96 -124 96 -246 0 -88 -3 -107 -27 -157 -50 -107 -157 -185 -313 -230 -69 -19 -102 -22 -240 -21 -237 1 -396 38 -597 139 -98 49 -253 152 -343 226 -57 48 -60 49 -75 31 -8 -11 -83 -99 -165 -197 -83 -98 -151 -182 -153 -186 -5 -13 184 -160 289 -225 308 -191 660 -288 1039 -288 363 1 630 83 848 262 114 93 232 288 272 446 62 241 24 524 -92 704 -151 233 -387 356 -978 511 -412 108 -547 168 -639 284 -44 55 -56 100 -56 206 0 85 3 101 29 149 81 154 258 241 489 241 258 -1 507 -87 787 -271 41 -27 79 -50 84 -51 12 -1 306 414 300 424 -2 3 -50 37 -106 76 -262 178 -511 272 -814 307 -119 14 -307 18 -384 8z" fill="#ffffff"/>
<path d="M11873 21713 c-129 -296 -937 -2146 -1078 -2468 -86 -198 -182 -416 -212 -485 -30 -69 -59 -135 -64 -147 l-9 -23 288 0 288 0 166 388 165 387 750 2 c578 2 754 0 765 -10 9 -7 34 -57 56 -112 64 -158 271 -647 275 -651 2 -3 137 -3 299 -2 l295 3 -252 575 c-289 660 -843 1928 -1030 2357 -101 233 -131 292 -148 297 -12 3 -130 6 -262 6 l-240 0 -52 -117z m434 -868 c67 -154 187 -433 268 -620 81 -187 149 -346 152 -352 4 -10 -109 -13 -546 -13 -387 0 -551 3 -551 11 0 9 523 1238 537 1262 3 5 9 5 12 0 4 -4 62 -134 128 -288z" fill="#ffffff"/>
<path d="M1690 20204 l0 -1605 868 4 c928 4 911 4 1112 57 98 27 236 84 317 132 74 43 219 188 262 260 76 131 111 266 111 432 0 336 -134 548 -445 703 -44 22 -101 48 -127 58 -27 10 -48 20 -47 24 0 3 39 31 86 61 155 100 259 232 320 405 26 75 27 90 28 245 0 186 -12 246 -71 363 -122 244 -369 399 -719 452 -83 12 -239 15 -897 15 l-798 0 0 -1606z m1492 1102 c85 -6 207 -43 266 -80 52 -32 120 -109 142 -160 46 -103 42 -257 -10 -362 -54 -110 -160 -184 -323 -226 -76 -19 -115 -21 -544 -25 l-463 -5 0 430 0 431 28 3 c45 5 821 0 904 -6z m259 -1353 c164 -46 266 -120 322 -232 30 -62 32 -71 32 -181 0 -110 -2 -119 -32 -181 -41 -83 -102 -140 -196 -184 -148 -70 -132 -69 -754 -73 l-563 -3 0 441 0 441 558 -3 c532 -4 560 -5 633 -25z" fill="#ffffff"/>
<path d="M1830 11848 l0 -1608 1195 0 1195 0 5 23 c3 12 4 126 3 252 l-3 230 -917 3 -918 2 0 30 c0 17 0 197 0 400 0 204 0 384 0 400 l0 30 805 0 805 0 0 255 0 255 -807 0 -808 0 3 412 2 413 905 3 905 2 0 253 0 252 -1185 0 -1185 0 0 -1607z" fill="#ffffff"/>
<path d="M19420 11847 l0 -1607 275 2 275 3 0 461 0 461 251 257 c139 141 255 256 259 254 5 -2 141 -178 304 -393 163 -214 344 -454 404 -532 59 -78 170 -225 247 -327 l140 -185 343 -1 343 0 -123 161 c-68 89 -382 502 -699 917 l-576 756 661 683 c364 376 662 687 664 691 1 4 -152 7 -340 7 l-342 0 -759 -802 c-418 -442 -763 -800 -768 -798 -4 3 -8 362 -8 798 -1 436 -1 794 -1 797 0 3 -124 5 -275 5 l-275 0 0 -1608z" fill="#ffffff"/>
<path d="M11020 11850 l0 -290 1155 0 1155 0 0 290 0 290 -1155 0 -1155 0 0 -290z" fill="#ffffff"/>
<path d="M2723 4902 c-46 -106 -205 -469 -868 -1987 -241 -550 -452 -1035 -471 -1077 l-33 -78 288 0 289 0 165 388 165 387 760 3 760 2 64 -152 c36 -84 109 -260 164 -390 l99 -238 299 0 c235 0 297 3 293 13 -3 6 -85 194 -182 417 -253 576 -1107 2531 -1173 2683 l-55 127 -261 0 -261 -1 -42 -97z m437 -907 c73 -170 195 -454 272 -629 76 -176 138 -323 138 -327 0 -11 -1100 -12 -1100 -2 -1 18 545 1282 551 1275 3 -4 66 -146 139 -317z" fill="#ffffff"/>
<path d="M10613 4983 c-10 -4 -13 -335 -13 -1609 l0 -1604 280 0 280 0 2 1148 3 1147 503 -752 c276 -414 506 -753 510 -753 5 0 236 339 513 754 277 415 507 751 511 747 4 -4 7 -521 5 -1149 l-2 -1142 278 0 277 0 0 1610 0 1610 -298 0 -299 -1 -464 -722 c-255 -397 -475 -739 -488 -760 -20 -30 -27 -35 -37 -25 -6 7 -83 126 -171 263 -253 395 -743 1156 -775 1203 l-29 43 -287 -2 c-158 -1 -293 -3 -299 -6z" fill="#ffffff"/>
<path d="M19595 4978 c-3 -7 -4 -731 -3 -1608 l3 -1595 277 -3 278 -2 2 517 3 518 445 6 c409 5 453 7 545 27 407 90 680 282 833 587 76 153 108 328 99 543 -12 292 -107 514 -299 698 -166 160 -369 254 -648 301 -131 22 -1527 33 -1535 11z m1465 -527 c293 -75 449 -266 450 -552 0 -284 -179 -496 -480 -564 -62 -14 -147 -18 -477 -22 l-403 -5 0 579 c0 319 3 583 8 587 4 4 189 6 412 3 374 -4 411 -6 490 -26z" fill="#ffffff"/>
</g>
</svg>