<svg xmlns="http://www.w3.org/2000/svg" width="17.649" height="11.16" viewBox="0 0 17.649 11.16"><defs><style>.a{fill:#dabbe3;}</style></defs><path class="a" d="M0,10.328a.8.8,0,0,0,.6.75.532.532,0,0,0,.173.019.768.768,0,0,0,.654-.384c1.326-2.345,4.921-2.5,6.458-2.46v2.076a.811.811,0,0,0,.519.711.837.837,0,0,0,.884-.173l4.728-4.805a.778.778,0,0,0,0-1.076L9.264.18A.8.8,0,0,0,8.4.007.811.811,0,0,0,7.88.718V2.775A8.611,8.611,0,0,0,2.172,5.081,7.989,7.989,0,0,0,0,10.328ZM2.057,7.964c.75-1.691,2.5-3.671,6.631-3.671a.739.739,0,0,0,.73-.769V2.6L12.3,5.523,9.418,8.445V7.522a.738.738,0,0,0-.634-.769C8.572,6.734,4.786,6.35,2.057,7.964ZM15.838,5.523,11.629,1.256a.8.8,0,0,1,0-1.1.76.76,0,0,1,1.076,0l4.728,4.805a.778.778,0,0,1,0,1.076L12.7,10.847a.768.768,0,0,1-1.076-1.1Z" transform="translate(0 0.063)"/></svg>