<svg xmlns="http://www.w3.org/2000/svg" width="19.418" height="21.242" viewBox="0 0 19.418 21.242"><defs><style>.a{fill:#939393;}</style></defs><path class="a" d="M18.394,16.509c-1.547,0-2.147-.9-2.147-6.557,0-4.433-2.009-7.2-5.472-7.619V.924a.924.924,0,1,0-1.847,0V2.309c-3.694.3-5.842,3.117-5.842,7.643,0,5.657-.67,6.557-2.24,6.557a.894.894,0,0,0-.947.877.868.868,0,0,0,.9.877h6a3.728,3.728,0,0,0,.831,2.147,2.5,2.5,0,0,0,1.893.831,2.58,2.58,0,0,0,1.893-.831,3.9,3.9,0,0,0,.9-2.147h6.072a.874.874,0,0,0,.924-.877A.888.888,0,0,0,18.394,16.509Zm-8.266,2.632a.692.692,0,0,1-.554.231.675.675,0,0,1-.531-.231,1.563,1.563,0,0,1-.346-.9h1.824A1.561,1.561,0,0,1,10.129,19.141Zm-.393-2.725h-5.7c.854-1.616.854-4.133.854-6.488,0-3.764,1.639-5.749,4.595-5.749h.254c2.955,0,4.595,1.986,4.595,5.749,0,2.355,0,4.872.854,6.488Z" transform="translate(0.1)"/></svg>