<svg xmlns="http://www.w3.org/2000/svg" width="30" height="30" viewBox="0 0 30 30"><defs><style>.a{fill:rgba(255,255,255,0);}.b{fill:#fff;}</style></defs><g transform="translate(-5975 594)"><rect class="a" width="30" height="30" transform="translate(5975 -594)"/><path class="b" d="M7.817,8.655h-7A.824.824,0,0,1,0,7.841,7.839,7.839,0,0,1,7.817,0a.824.824,0,0,1,.814.814v7A.8.8,0,0,1,7.817,8.655ZM1.7,7H7.026V1.7A6.171,6.171,0,0,0,1.7,7Zm9.725,14.4a9.777,9.777,0,0,1-9.981-9.562.933.933,0,0,1,.931-.931h8.539V2.373a.933.933,0,0,1,.931-.931A9.9,9.9,0,0,1,21.4,11.424,10.009,10.009,0,0,1,11.424,21.4Zm-8.05-8.632a7.982,7.982,0,0,0,8.05,6.77,8.143,8.143,0,0,0,1.349-16.17v8.469a.933.933,0,0,1-.931.931Z" transform="translate(5979 -590.626)"/></g></svg>