<svg xmlns="http://www.w3.org/2000/svg" width="15.74" height="12.333" viewBox="0 0 15.74 12.333"><defs><style>.a{fill:#d9bce2;}</style></defs><path class="a" d="M.851,12.333a.723.723,0,0,1-.213-.021A.843.843,0,0,1,0,11.482a8.872,8.872,0,0,1,2.445-5.8A9.379,9.379,0,0,1,8.8,3.126V.851a.857.857,0,0,1,1.467-.6L15.5,5.571a.86.86,0,0,1,0,1.191L10.27,12.077a.857.857,0,0,1-1.467-.6v-2.3c-1.7-.043-5.741.128-7.208,2.722A.884.884,0,0,1,.851,12.333ZM8.335,7.463c.787,0,1.34.064,1.4.064a.854.854,0,0,1,.765.851V9.4l3.19-3.232L10.5,2.934V3.955a.853.853,0,0,1-.851.851,8.09,8.09,0,0,0-6,2.084,6.646,6.646,0,0,0-1.34,1.977A12.14,12.14,0,0,1,8.335,7.463Z"/></svg>