<svg xmlns="http://www.w3.org/2000/svg" width="17.649" height="16.112" viewBox="0 0 17.649 16.112"><defs><style>.a{fill:#dcb9e7;}</style></defs><path class="a" d="M16.882,4.807h-2.11a.435.435,0,0,1-.019-.077L11.127.3A.763.763,0,0,0,10.052.183.81.81,0,0,0,9.937,1.3L12.8,4.807H4.854L7.712,1.3A.769.769,0,0,0,7.6.2.761.761,0,0,0,6.523.3L2.9,4.73a.193.193,0,0,1-.019.058H.767A.708.708,0,0,0,0,5.478V8.356a.858.858,0,0,0,.767.863h.249l1.439,5.832a1.412,1.412,0,0,0,1.439,1.074h9.861a1.447,1.447,0,0,0,1.439-1.074l1.439-5.832h.249a.839.839,0,0,0,.767-.844V5.5A.708.708,0,0,0,16.882,4.807ZM1.535,6.341h14.58V7.684H1.535Zm12.182,8.249H3.933L2.59,9.219H15.06Z" transform="translate(0 -0.013)"/></svg>