<svg xmlns="http://www.w3.org/2000/svg" width="30" height="30" viewBox="0 0 30 30"><defs><style>.a{fill:rgba(255,255,255,0);}.b{fill:#fff;}</style></defs><g transform="translate(-5975 554)"><rect class="a" width="30" height="30" transform="translate(5975 -554)"/><path class="b" d="M1192.546,2249a.976.976,0,0,1-.684-.279l-9.6-9.372-9.6,9.372a.979.979,0,1,1-1.368-1.4l10.283-10.041a.98.98,0,0,1,1.369,0l10.283,10.041a.979.979,0,0,1-.684,1.68Zm-2.144,8.045v-8.068a.979.979,0,1,0-1.958,0v7.089h-3.06v-5.237a1.3,1.3,0,0,0-1.3-1.3h-3.643a1.3,1.3,0,0,0-1.3,1.3v5.237h-3.06v-7.089a.979.979,0,1,0-1.959,0v8.068a.98.98,0,0,0,.98.979h5.018a.979.979,0,0,0,.979-.979v-5.557h2.325v5.557a.979.979,0,0,0,.979.979h5.019A.979.979,0,0,0,1190.4,2257.044Z" transform="translate(4807.389 -2787.337)"/></g></svg>