<svg xmlns="http://www.w3.org/2000/svg" width="16" height="15.269" viewBox="0 0 16 15.269"><defs><style>.a{fill:rgba(255,255,255,0.5);}</style></defs><path class="a" d="M15.973,5.783a.773.773,0,0,0-.636-.509l-4.6-.327L8.662.418a.721.721,0,0,0-1.309,0L5.28,4.946l-4.6.327a.719.719,0,0,0-.636.509.742.742,0,0,0,.218.782L4.1,9.8,2.807,14.348a.7.7,0,0,0,.273.782.711.711,0,0,0,.818.018l4.11-2.655L12.1,15.148a.755.755,0,0,0,.837-.036.759.759,0,0,0,.273-.782L11.917,9.783l3.837-3.237A.713.713,0,0,0,15.973,5.783Z" transform="translate(-0.008)"/></svg>