<svg xmlns="http://www.w3.org/2000/svg" width="30" height="30" viewBox="0 0 30 30"><defs><style>.a{opacity:0.5;}.b{fill:rgba(255,255,255,0);}.c{fill:#fff;}</style></defs><g class="a" transform="translate(-5976 635)"><rect class="b" width="30" height="30" transform="translate(5976 -635)"/><path class="c" d="M9.206,11A5.5,5.5,0,1,0,3.719,5.487,5.51,5.51,0,0,0,9.206,11Zm0-8.92A3.407,3.407,0,1,1,5.773,5.487,3.424,3.424,0,0,1,9.206,2.08Zm2.5,9.414a1.1,1.1,0,0,0-.858.1l-1.638.988L7.568,11.6a1.1,1.1,0,0,0-.858-.1C5.123,12.014,0,13.861,0,16.643a1.043,1.043,0,0,0,1.04,1.04H17.371a1.043,1.043,0,0,0,1.04-1.04C18.412,13.861,13.289,12.014,11.7,11.494ZM2.913,15.6a15.688,15.688,0,0,1,3.979-1.976L8.66,14.693a.988.988,0,0,0,1.066,0l1.768-1.066A14.873,14.873,0,0,1,15.473,15.6Zm20.752-.78a.766.766,0,0,1-.78.78H19.4a.78.78,0,0,1,0-1.56h2.314a5.318,5.318,0,0,0-1.794-1.352.752.752,0,0,1-.312-1.04.775.775,0,0,1,1.066-.312C21.792,11.936,23.665,13.211,23.665,14.823ZM19.3,7.958A2.059,2.059,0,0,0,17.241,5.9a2.119,2.119,0,0,0-.806.156.775.775,0,0,1-.6-1.43,3.662,3.662,0,0,1,1.4-.286,3.615,3.615,0,1,1-2.7,6.007.774.774,0,0,1,1.17-1.014,2.089,2.089,0,0,0,1.56.7A2.112,2.112,0,0,0,19.3,7.958Z" transform="translate(5979 -629.731)"/></g></svg>