<svg xmlns="http://www.w3.org/2000/svg" width="16" height="15.28" viewBox="0 0 16 15.28"><defs><style>.a{fill:rgba(255,255,255,0.5);}</style></defs><path class="a" d="M12.5,15.275a.779.779,0,0,1-.4-.109L8.008,12.493,3.916,15.166a.743.743,0,0,1-.818-.018.759.759,0,0,1-.273-.782L4.116,9.82.261,6.565a.733.733,0,0,1-.218-.782.773.773,0,0,1,.636-.509l4.6-.327L7.353.418a.721.721,0,0,1,1.309,0l2.073,4.528,4.6.327a.719.719,0,0,1,.636.509.752.752,0,0,1-.218.782L11.917,9.8l1.291,4.546a.7.7,0,0,1-.273.782A.74.74,0,0,1,12.5,15.275ZM8.008,10.911a.779.779,0,0,1,.4.109l2.873,1.873L10.39,9.747A.726.726,0,0,1,10.626,9l2.819-2.382-3.237-.255a.757.757,0,0,1-.618-.418L8.008,2.473,6.425,5.946a.733.733,0,0,1-.618.418L2.57,6.6,5.389,8.983a.726.726,0,0,1,.236.746l-.891,3.164,2.873-1.855A.655.655,0,0,1,8.008,10.911Z" transform="translate(-0.008)"/></svg>