<svg xmlns="http://www.w3.org/2000/svg" width="30" height="30" viewBox="0 0 30 30"><defs><style>.a{fill:rgba(255,255,255,0);}.b{fill:#fff;}</style></defs><g transform="translate(-5975 554)"><rect class="a" width="30" height="30" transform="translate(5975 -554)"/><path class="b" d="M19.637,0H1.768A1.767,1.767,0,0,0,0,1.768V12.075A1.87,1.87,0,0,0,1.768,13.96h5.91v.954L5.91,16.333a1.024,1.024,0,0,0,.558,1.815h8.376a1.053,1.053,0,0,0,.907-.7,1.015,1.015,0,0,0-.279-1.094l-1.745-1.442V13.96h5.91A1.87,1.87,0,0,0,21.4,12.075V1.768A1.767,1.767,0,0,0,19.637,0ZM12.378,16.007l.558.512H8.376l.6-.535a.99.99,0,0,0,.326-.7V13.96H12.1v1.349A.985.985,0,0,0,12.378,16.007ZM19.543,12.1H1.861V1.861H19.543Z" transform="translate(5979 -548.648)"/></g></svg>