<svg xmlns="http://www.w3.org/2000/svg" width="30" height="30" viewBox="0 0 30 30"><defs><style>.a{fill:none;}</style></defs><g transform="translate(-7236 5209)"><rect class="a" width="30" height="30" transform="translate(7236 -5209)"/><path d="M4717.426,651.006a1.291,1.291,0,0,0-.388-.921l-12.092-11.876a1.3,1.3,0,0,0-.832-.37l-9.648-.611a1.305,1.305,0,0,0-1,.377,1.286,1.286,0,0,0-.377,1l.622,9.476a1.3,1.3,0,0,0,.385.837l12.092,11.876a1.305,1.305,0,0,0,1.828,0l9.027-8.865A1.29,1.29,0,0,0,4717.426,651.006Zm-10.329,7.046-10.826-10.632-.493-7.516,7.686.487,10.808,10.615Zm-5.609-15.266a1.939,1.939,0,0,1,0,2.743,1.96,1.96,0,0,1-2.762,0,1.941,1.941,0,0,1,1.379-3.313A1.979,1.979,0,0,1,4701.488,642.786Z" transform="translate(2546.162 -5842.406)"/></g></svg>