<svg xmlns="http://www.w3.org/2000/svg" width="30" height="30" viewBox="0 0 30 30"><defs><style>.a{fill:none;}</style></defs><g transform="translate(-7236 5209)"><rect class="a" width="30" height="30" transform="translate(7236 -5209)"/><path d="M21.734,4.58,6.257,20.241a1.327,1.327,0,0,1-.369.259L1.529,22.235a1.571,1.571,0,0,1-.406.074,1.063,1.063,0,0,1-.776-.332,1.154,1.154,0,0,1-.259-1.182l1.736-4.4a.844.844,0,0,1,.259-.369L17.523.332A1.063,1.063,0,0,1,18.3,0h0a1.006,1.006,0,0,1,.776.332l2.659,2.7A1.071,1.071,0,0,1,21.734,4.58ZM19.407,3.8,18.3,2.7,3.782,17.434l-.7,1.81,1.773-.7Z" transform="translate(7240.401 -5205.458)"/></g></svg>