<svg xmlns="http://www.w3.org/2000/svg" width="30" height="30" viewBox="0 0 30 30"><defs><style>.a{fill:none;}</style></defs><g transform="translate(-6059 5359)"><g transform="translate(-1177 -150)"><rect class="a" width="30" height="30" transform="translate(7236 -5209)"/><path d="M20.07,7.826l-.825,15.385a1.076,1.076,0,0,1-1.065,1.011H4.711a1.076,1.076,0,0,1-1.065-1.011L2.821,7.826a1.066,1.066,0,0,1,2.129-.106l.772,14.374H17.2l.772-14.374a1.053,1.053,0,1,1,2.1.106Zm2.821-3.567a1.068,1.068,0,0,1-1.065,1.065H1.065a1.065,1.065,0,1,1,0-2.129H6.921V.8A.77.77,0,0,1,7.772,0h7.347a.77.77,0,0,1,.852.8v2.4h5.856A1.068,1.068,0,0,1,22.891,4.259ZM8.784,3.194h5.324V1.863H8.784Zm.453,17.3h0a1,1,0,0,0,.932-1.011L9.9,7.985a.949.949,0,0,0-.958-.932.911.911,0,0,0-.905.958L8.3,19.538A.967.967,0,0,0,9.236,20.5Zm4.392,0a.943.943,0,0,0,.932-.932l.266-11.5a.932.932,0,1,0-1.863-.053l-.266,11.5a.938.938,0,0,0,.932.985Z" transform="translate(7239.379 -5206.445)"/></g></g></svg>