<svg xmlns="http://www.w3.org/2000/svg" width="30" height="30" viewBox="0 0 30 30"><defs><style>.a{fill:none;}</style></defs><g transform="translate(-6059 5659)"><g transform="translate(-1177 -450)"><path d="M5.792,4.686V1.316a1.316,1.316,0,0,1,2.633,0v3.37a1.316,1.316,0,0,1-2.633,0ZM17.113,6A1.3,1.3,0,0,0,18.43,4.686V1.316a1.316,1.316,0,1,0-2.633,0v3.37A1.3,1.3,0,0,0,17.113,6Zm7.109-3V20.8a1.056,1.056,0,0,1-1.053,1.053H1.053A1.056,1.056,0,0,1,0,20.8V3A1.152,1.152,0,0,1,1.053,1.843H3.5a1.053,1.053,0,1,1,0,2.106h-1.4V8.425H22.116V3.949h-1.4a1.053,1.053,0,1,1,0-2.106h2.449A1.152,1.152,0,0,1,24.222,3ZM22.116,19.746V10.268H2.106v9.478ZM10.452,3.949H13.77a1.053,1.053,0,1,0,0-2.106H10.452a1.053,1.053,0,0,0,0,2.106Z" transform="translate(7238.861 -5204.734)"/><rect class="a" width="30" height="30" transform="translate(7236 -5209)"/></g></g></svg>