<svg xmlns="http://www.w3.org/2000/svg" width="30" height="30" viewBox="0 0 30 30"><defs><style>.a{fill:none;}</style></defs><g transform="translate(-7236 5209)"><rect class="a" width="30" height="30" transform="translate(7236 -5209)"/><path d="M2511.032,1801.792a1.28,1.28,0,0,1,1.28-1.28h14.2a1.281,1.281,0,0,1,0,2.561h-14.2A1.281,1.281,0,0,1,2511.032,1801.792Zm15.48,6.915h-14.2a1.281,1.281,0,0,0,0,2.561h14.2a1.281,1.281,0,0,0,0-2.561Zm0,8.2h-14.2a1.28,1.28,0,0,0,0,2.561h14.2a1.28,1.28,0,0,0,0-2.561Zm-19.725-8.6a1.816,1.816,0,1,0,1.787,1.816A1.8,1.8,0,0,0,2506.787,1808.3Zm0-8.3a1.816,1.816,0,1,0,1.787,1.816A1.8,1.8,0,0,0,2506.787,1800Zm0,16.344a1.816,1.816,0,1,0,1.787,1.816A1.8,1.8,0,0,0,2506.787,1816.344Z" transform="translate(4734.505 -7003.783)"/></g></svg>