<svg xmlns="http://www.w3.org/2000/svg" width="30" height="30" viewBox="0 0 30 30"><defs><style>.a{fill:none;}</style></defs><g transform="translate(-6059 5239)"><g transform="translate(-1177 -30)"><rect class="a" width="30" height="30" transform="translate(7236 -5209)"/><path d="M17.478,2.5A10.565,10.565,0,0,0,10.4,0,10.566,10.566,0,0,0,3.326,2.5C1.15,4.441,0,7.389,0,11.027c0,7.924,9.119,17.209,9.507,17.6a1.261,1.261,0,0,0,1.79,0c.388-.391,9.507-9.676,9.507-17.6,0-3.638-1.15-6.586-3.326-8.525M10.4,25.891a48.655,48.655,0,0,1-3.539-4.423c-2.839-4.027-4.34-7.637-4.34-10.44,0-7.892,6.032-8.505,7.88-8.505,7.312,0,7.88,6.51,7.88,8.505,0,5.55-5.646,12.379-7.881,14.864m0-20.452a5.1,5.1,0,1,0,5.019,5.1,5.064,5.064,0,0,0-5.019-5.1m0,7.989a2.893,2.893,0,1,1,2.812-2.891A2.856,2.856,0,0,1,10.4,13.428" transform="translate(7240.63 -5208)"/></g></g></svg>