<svg xmlns="http://www.w3.org/2000/svg" width="30" height="30" viewBox="0 0 30 30"><defs><style>.a{fill:none;}</style></defs><g transform="translate(-7236 5209)"><rect class="a" width="30" height="30" transform="translate(7236 -5209)"/><path d="M9.162,10.143H.954A.966.966,0,0,1,0,9.189,9.187,9.187,0,0,1,9.162,0a.966.966,0,0,1,.954.954V9.162A.938.938,0,0,1,9.162,10.143ZM1.99,8.207H8.235V1.99A7.233,7.233,0,0,0,1.99,8.207Zm11.4,16.878a11.459,11.459,0,0,1-11.7-11.207,1.094,1.094,0,0,1,1.091-1.091H12.788V2.781a1.094,1.094,0,0,1,1.091-1.091c6.08,0,11.207,5.344,11.207,11.7A11.73,11.73,0,0,1,13.388,25.085ZM3.954,14.969A9.354,9.354,0,0,0,13.388,22.9a9.544,9.544,0,0,0,1.581-18.95v9.925a1.094,1.094,0,0,1-1.091,1.091Z" transform="translate(7238.433 -5206.737)"/></g></svg>