<svg xmlns="http://www.w3.org/2000/svg" width="30" height="30" viewBox="0 0 30 30"><defs><style>.a{fill:none;}</style></defs><g transform="translate(-7236 5209)"><rect class="a" width="30" height="30" transform="translate(7236 -5209)"/><path d="M756.946,3377.206a1.226,1.226,0,0,1-.361.869l-5.708,5.686a1.212,1.212,0,0,1-.865.348,1.244,1.244,0,0,1-.87-.382,1.279,1.279,0,0,1,0-1.778l3.6-3.669H740.768a1.227,1.227,0,1,1,0-2.453h11.979l-3.6-3.514a1.142,1.142,0,0,1,0-1.663,1.224,1.224,0,0,1,1.735,0l5.708,5.691A1.226,1.226,0,0,1,756.946,3377.206Zm-25.746-7.912h11.98a1.227,1.227,0,0,0,0-2.454H731.2l3.6-3.669a1.279,1.279,0,0,0,0-1.778,1.224,1.224,0,0,0-1.734-.024l-5.709,5.682a1.222,1.222,0,0,0,0,1.736l5.709,5.69a1.224,1.224,0,0,0,1.734,0,1.141,1.141,0,0,0,0-1.663Z" transform="translate(6509.054 -8566.483)"/></g></svg>