<svg xmlns="http://www.w3.org/2000/svg" width="30" height="30" viewBox="0 0 30 30"><defs><style>.a{fill:none;}</style></defs><g transform="translate(-7236 5209)"><rect class="a" width="30" height="30" transform="translate(7236 -5209)"/><g transform="translate(6437 -5621)"><path d="M2.675,5.349a2.79,2.79,0,0,1-1.911-.8A2.837,2.837,0,0,1,0,2.675,3.015,3.015,0,0,1,.764.764,2.685,2.685,0,0,1,2.675,0,2.837,2.837,0,0,1,4.547.764a2.864,2.864,0,0,1,.8,1.911A2.742,2.742,0,0,1,2.675,5.349Zm11.425-.8a2.7,2.7,0,0,0,.8-1.872A2.864,2.864,0,0,0,14.1.764,2.662,2.662,0,0,0,12.227,0a2.935,2.935,0,0,0-1.911.764,2.685,2.685,0,0,0-.764,1.911,2.837,2.837,0,0,0,.764,1.872,2.63,2.63,0,0,0,3.783,0Zm9.553,0a2.7,2.7,0,0,0,.8-1.872,2.864,2.864,0,0,0-.8-1.911A2.662,2.662,0,0,0,21.78,0a2.935,2.935,0,0,0-1.911.764,2.685,2.685,0,0,0-.764,1.911,2.837,2.837,0,0,0,.764,1.872,2.63,2.63,0,0,0,3.783,0Z" transform="translate(801.382 424.005)"/></g></g></svg>