<svg xmlns="http://www.w3.org/2000/svg" width="30" height="30" viewBox="0 0 30 30"><defs><style>.a{fill:none;}</style></defs><g transform="translate(-7236 5209)"><rect class="a" width="30" height="30" transform="translate(7236 -5209)"/><path d="M18.979,3.324a11.14,11.14,0,1,0-7.889,19.022,11.027,11.027,0,0,0,7.865-3.267A11.108,11.108,0,0,0,18.979,3.324ZM4.6,17.7A9.258,9.258,0,0,1,3.95,5.405L16.9,18.353A9.231,9.231,0,0,1,4.6,17.7Zm13.673-.726L5.329,4.026A9.207,9.207,0,0,1,18.277,16.973Z" transform="translate(7239.761 -5205.062)"/></g></svg>