<svg xmlns="http://www.w3.org/2000/svg" width="30" height="30" viewBox="0 0 30 30"><defs><style>.a{fill:none;}</style></defs><g transform="translate(-6059 5419)"><g transform="translate(-1177 -210)"><rect class="a" width="30" height="30" transform="translate(7236 -5209)"/><path d="M2836.551,2688.868a.832.832,0,0,1-.2-.025,1.017,1.017,0,0,1-.771-1,14.638,14.638,0,0,1,4.04-9.581c2.543-2.542,6.085-3.96,10.521-4.207a.412.412,0,0,0,.389-.411v-3.865a1.043,1.043,0,0,1,1.788-.723l8.885,9.03a1.046,1.046,0,0,1,0,1.449l-8.881,9.025a1.043,1.043,0,0,1-1.475.013,1.05,1.05,0,0,1-.312-.738v-3.9a.411.411,0,0,0-.4-.412c-.213-.005-.448-.009-.7-.009-3.425,0-9.527.629-11.912,4.84a1.08,1.08,0,0,1-.912.514Zm15.127-7.344a1.036,1.036,0,0,1,.92,1.033v1.737a.412.412,0,0,0,.256.381.406.406,0,0,0,.156.031.41.41,0,0,0,.293-.123l5.418-5.49a.411.411,0,0,0,0-.579l-5.417-5.489a.411.411,0,0,0-.293-.123.405.405,0,0,0-.156.031.412.412,0,0,0-.256.381v1.734a1.038,1.038,0,0,1-1.033,1.032c-4.56,0-8.085,1.232-10.478,3.663a11.662,11.662,0,0,0-2.359,3.477.413.413,0,0,0,.377.579.406.406,0,0,0,.212-.06c3.347-2.01,7.676-2.318,9.979-2.32h.03c1.024,0,1.822.063,2.162.09Z" transform="translate(4402.481 -7873.355)"/></g></g></svg>