<svg xmlns="http://www.w3.org/2000/svg" width="30" height="30" viewBox="0 0 30 30"><defs><style>.a{fill:none;}</style></defs><g transform="translate(-6059 5179)"><g transform="translate(-1177 30)"><rect class="a" width="30" height="30" transform="translate(7236 -5209)"/><path d="M8.37,4.156,6.552,2.338A10.741,10.741,0,0,1,13.472,0a10.66,10.66,0,0,1,7.141,2.525c2.2,1.957,3.357,4.931,3.357,8.6a16.457,16.457,0,0,1-1.783,6.843l-1.919-1.919a12.914,12.914,0,0,0,1.157-4.925c0-2.014-.574-8.583-7.952-8.583a8.569,8.569,0,0,0-5.1,1.611m9.319,9.319a5.17,5.17,0,0,0,.847-2.842,5.111,5.111,0,0,0-5.065-5.145,4.979,4.979,0,0,0-2.864.906l1.62,1.62a2.753,2.753,0,0,1,1.244-.3,2.882,2.882,0,0,1,2.838,2.918,2.964,2.964,0,0,1-.257,1.206Zm6.268,12.24L20.032,21.79a48.793,48.793,0,0,1-5.657,7.1,1.273,1.273,0,0,1-1.807,0c-.392-.4-9.594-9.765-9.594-17.761A13.207,13.207,0,0,1,4.014,5.771L0,1.758,1.481.277,5.092,3.889c.007-.01.013-.02.02-.029L6.938,5.686c-.007.009-.012.02-.019.03L9.158,7.954c.006-.01.011-.02.017-.031l1.654,1.654c0,.012-.007.024-.012.036l3.721,3.721.035-.013,1.634,1.634-.03.018,3.107,3.107.017-.031,1.868,1.868c-.005.01-.012.02-.017.031l4.285,4.285ZM18.19,19.948l-4.2-4.2a4.951,4.951,0,0,1-.517.03,5.111,5.111,0,0,1-5.064-5.145c0-.15.008-.3.021-.446L5.982,7.74a11.539,11.539,0,0,0-.463,3.387c0,2.829,1.514,6.472,4.38,10.536a49.041,49.041,0,0,0,3.572,4.463,47.7,47.7,0,0,0,4.72-6.178" transform="translate(7237.785 -5208.265)"/></g></g></svg>