<svg xmlns="http://www.w3.org/2000/svg" width="30" height="30" viewBox="0 0 30 30"><defs><style>.a{fill:none;}</style></defs><g transform="translate(-7236 5209)"><rect class="a" width="30" height="30" transform="translate(7236 -5209)"/><path d="M26,21.354c-.024-.166-.632-4.085-4.239-5.285-1.23-.414-4.545-2.18-4.714-2.956-.056-.255.133-.6.541-.981A7.277,7.277,0,0,0,19.91,7.07a6.489,6.489,0,0,0-1.842-4.86A7.182,7.182,0,0,0,13.007,0,7.182,7.182,0,0,0,7.946,2.211,6.489,6.489,0,0,0,6.1,7.07a7.275,7.275,0,0,0,2.317,5.057c.412.389.6.73.545.985-.168.775-3.483,2.541-4.712,2.955C.645,17.267.037,21.187.013,21.354A1.2,1.2,0,0,0,1.2,22.722h23.62A1.2,1.2,0,0,0,26,21.354M11.3,13.624a3.361,3.361,0,0,0-1.26-3.257L10,10.327A4.875,4.875,0,0,1,8.5,6.976,4.151,4.151,0,0,1,9.672,3.87a4.811,4.811,0,0,1,3.335-1.475A4.812,4.812,0,0,1,16.343,3.87a4.151,4.151,0,0,1,1.175,3.106,4.869,4.869,0,0,1-1.495,3.345l-.052.046a3.362,3.362,0,0,0-1.261,3.258c.549,2.509,5.813,4.536,6.264,4.7l.038.014a3.788,3.788,0,0,1,2.161,1.986H2.842A3.784,3.784,0,0,1,5.01,18.339c.057-.019,5.724-2.106,6.294-4.715" transform="translate(7237.891 -5206.01)"/></g></svg>