<svg xmlns="http://www.w3.org/2000/svg" width="30" height="30" viewBox="0 0 30 30"><defs><style>.a{fill:none;}</style></defs><g transform="translate(-7236 5209)"><rect class="a" width="30" height="30" transform="translate(7236 -5209)"/><path d="M2860.711,2306.985l-.762.774a.976.976,0,0,0-.272.84,9.647,9.647,0,1,1-2.22-4.736l-7.758,7.753-3.469-3.415a1.148,1.148,0,0,0-1.622,1.624l4.28,4.225a1.148,1.148,0,0,0,1.622,0l8.751-8.744c.01-.01.016-.022.026-.032l.434-.433a1.063,1.063,0,0,0,.116-1.359,11.695,11.695,0,1,0,1.708,3.735A.5.5,0,0,0,2860.711,2306.985Z" transform="translate(4400.807 -7504.132)"/></g></svg>