<svg xmlns="http://www.w3.org/2000/svg" width="30" height="30" viewBox="0 0 30 30"><defs><style>.a{fill:none;}</style></defs><g transform="translate(-7236 5209)"><rect class="a" width="30" height="30" transform="translate(7236 -5209)"/><path d="M25.558,1.075A1.114,1.114,0,0,0,24.534.058,16.689,16.689,0,0,0,9.3,7.216a6.494,6.494,0,0,0-5.282.589A9.746,9.746,0,0,0,.106,12.166a1.114,1.114,0,0,0,1.527,1.461,4.237,4.237,0,0,1,5,.441l4.912,4.907c.009.009.015.02.024.03a4.222,4.222,0,0,1,.441,4.99,1.114,1.114,0,0,0,1.459,1.529,9.751,9.751,0,0,0,4.365-3.909,6.476,6.476,0,0,0,.581-5.309,18.951,18.951,0,0,0,3.344-3.038,16,16,0,0,0,3.8-12.193M3.736,10.8A4.924,4.924,0,0,1,8.028,9.189a21.134,21.134,0,0,0-1.139,2.331A6.175,6.175,0,0,0,3.736,10.8M14.835,21.9a6.171,6.171,0,0,0-.734-3.177,22.977,22.977,0,0,0,2.343-1.156A4.9,4.9,0,0,1,14.835,21.9m-2.2-4.986L8.7,12.987C10.672,7.714,15.561,2.081,23.393,2.233c.263,9.333-7.442,13.375-10.761,14.677m7.2-11.1a1.813,1.813,0,1,1-1.281-.529,1.825,1.825,0,0,1,1.281.529M4.144,17.379c-1.28,1.279-1.33,3.842-1.328,4.339a1.128,1.128,0,0,0,1.108,1.126H3.96c.574,0,3.036-.094,4.288-1.344A2.974,2.974,0,0,0,9.2,19.374a2.916,2.916,0,0,0-.9-2.051,2.828,2.828,0,0,0-4.163.055M6.673,19.9a3.127,3.127,0,0,1-1.52.567,3.153,3.153,0,0,1,.566-1.515.821.821,0,0,1,.543-.3.681.681,0,0,1,.47.244.72.72,0,0,1,.243.469.886.886,0,0,1-.3.539" transform="translate(7238.362 -5206.991)"/></g></svg>