<svg xmlns="http://www.w3.org/2000/svg" width="30" height="30" viewBox="0 0 30 30"><defs><style>.a,.b{fill:none;}.b{stroke:#000;stroke-linecap:round;stroke-linejoin:round;stroke-width:2.5px;}</style></defs><g transform="translate(-7236 5209)"><rect class="a" width="30" height="30" transform="translate(7236 -5209)"/><g transform="translate(14512.974 -10387.59) rotate(180)"><path d="M2516.032,1801.792a1.28,1.28,0,0,1,1.28-1.28h9.2a1.281,1.281,0,0,1,0,2.561h-9.2A1.281,1.281,0,0,1,2516.032,1801.792Zm10.48,6.915h-9.2a1.281,1.281,0,0,0,0,2.561h9.2a1.281,1.281,0,0,0,0-2.561Zm0,8.2h-9.2a1.28,1.28,0,0,0,0,2.561h9.2a1.28,1.28,0,0,0,0-2.561Z" transform="translate(4734.505 -7003.783)"/></g><path class="b" d="M0,0,5.539,5.539,11.077,0" transform="translate(7243.076 -5199.333) rotate(90)"/></g></svg>