<svg xmlns="http://www.w3.org/2000/svg" width="30" height="30" viewBox="0 0 30 30"><defs><style>.a{fill:none;}</style></defs><g transform="translate(-7236 5209)"><rect class="a" width="30" height="30" transform="translate(7236 -5209)"/><path d="M2088.316,702.714,2084.094,707a1.222,1.222,0,0,1-1.742,0l-4.222-4.288a1.222,1.222,0,1,1,1.742-1.715l2.36,2.4a8.411,8.411,0,1,0-8.382,9.161,8.249,8.249,0,0,0,4.747-1.494,1.222,1.222,0,1,1,1.4,2A10.687,10.687,0,0,1,2073.85,715a11,11,0,1,1,10.8-12.047l1.924-1.955a1.223,1.223,0,0,1,1.742,1.715Z" transform="translate(5175.444 -5897.62)"/></g></svg>