<svg xmlns="http://www.w3.org/2000/svg" width="30" height="30" viewBox="0 0 30 30"><defs><style>.a{fill:none;}</style></defs><g transform="translate(-7236 5209)"><rect class="a" width="30" height="30" transform="translate(7236 -5209)"/><path d="M2293.417,3125a12.417,12.417,0,1,0,12.417,12.417A12.431,12.431,0,0,0,2293.417,3125Zm0,22.674a10.257,10.257,0,1,1,10.258-10.257A10.269,10.269,0,0,1,2293.417,3147.674Zm4.121-7.663a1.08,1.08,0,0,1-1.526,1.527l-3.358-3.358a1.082,1.082,0,0,1-.316-.764v-6.435a1.08,1.08,0,1,1,2.159,0v5.988Z" transform="translate(4957.411 -8331.877)"/></g></svg>