<svg xmlns="http://www.w3.org/2000/svg" width="30" height="30" viewBox="0 0 30 30"><defs><style>.a{fill:none;}</style></defs><g transform="translate(-7236 5209)"><rect class="a" width="30" height="30" transform="translate(7236 -5209)"/><path d="M2068.965,3359.863a1.073,1.073,0,0,1-1.072,1.072l-1.656.043a.939.939,0,0,1-.705-.271l-6.217-6.269a1.072,1.072,0,0,1,0-1.516l5.609-5.608a1.072,1.072,0,0,1,1.516,0l6.269,6.267a1.069,1.069,0,1,1-1.516,1.509l-5.51-5.521-4.093,4.071,5.2,5.154h1.107A1.072,1.072,0,0,1,2068.965,3359.863Zm14.377,4.353-6.217-6.269a.939.939,0,0,0-.706-.271l-1.656.043a1.072,1.072,0,0,0,0,2.144h1.108l5.2,5.154-4.093,4.071-5.511-5.521a1.069,1.069,0,1,0-1.516,1.509l6.268,6.266a1.072,1.072,0,0,0,1.516,0l5.609-5.609a1.072,1.072,0,0,0,0-1.516Zm-7.994-11.134a1.072,1.072,0,0,0,1.072-1.072v-2.692a1.072,1.072,0,0,0-2.144,0v2.692A1.072,1.072,0,0,0,2075.348,3353.082Zm3.128,3.3h2.692a1.072,1.072,0,0,0,0-2.144h-2.692a1.072,1.072,0,0,0,0,2.144Zm-11.168,9.023a1.072,1.072,0,0,0-1.073,1.072v2.692a1.072,1.072,0,1,0,2.144,0v-2.692A1.072,1.072,0,0,0,2067.309,3365.4Zm-3.3-3.128h-2.692a1.072,1.072,0,0,0,0,2.144h2.692a1.072,1.072,0,1,0,0-2.144Z" transform="translate(5179.671 -8553.327)"/></g></svg>