<svg xmlns="http://www.w3.org/2000/svg" width="30" height="30" viewBox="0 0 30 30"><defs><style>.a{fill:none;}</style></defs><g transform="translate(-7236 5209)"><rect class="a" width="30" height="30" transform="translate(7236 -5209)"/><path d="M2691.524,2786.453a1.129,1.129,0,0,1-.132-.008,1.167,1.167,0,0,1-.97-.775l-4.2-12.017-2.492,6.013a1.167,1.167,0,0,1-1.078.72h-7.742a1.167,1.167,0,1,1,0-2.334h6.962l3.365-8.12a1.167,1.167,0,0,1,2.18.062l4.406,12.619,2.532-4.017a1.166,1.166,0,0,1,.987-.545h3.185a1.167,1.167,0,1,1,0,2.334h-2.541l-3.479,5.521A1.168,1.168,0,0,1,2691.524,2786.453Z" transform="translate(4564.13 -7972.091)"/></g></svg>