<svg xmlns="http://www.w3.org/2000/svg" width="30" height="30" viewBox="0 0 30 30"><defs><style>.a{fill:none;}.b{stroke:rgba(0,0,0,0);stroke-miterlimit:10;}</style></defs><g transform="translate(-7236 5209)"><rect class="a" width="30" height="30" transform="translate(7236 -5209)"/><path class="b" d="M196.177,267.706a1.062,1.062,0,0,1,0-1.174c.178-.267,4.445-6.531,11.9-6.531s11.718,6.265,11.9,6.531a1.058,1.058,0,0,1,0,1.174c-.177.267-4.444,6.531-11.9,6.531S196.355,267.973,196.177,267.706Zm2.194-.59c1.182,1.437,4.633,5.013,9.7,5.013s8.517-3.572,9.7-5.01c-1.182-1.437-4.632-5.009-9.7-5.009C202.982,262.11,199.547,265.679,198.371,267.117Zm7.236-.237a2.522,2.522,0,1,1,2.522,2.534A2.528,2.528,0,0,1,205.607,266.879Z" transform="translate(7043.382 -5461.43)"/></g></svg>