<svg xmlns="http://www.w3.org/2000/svg" width="30" height="30" viewBox="0 0 30 30"><defs><style>.a{fill:none;}</style></defs><g transform="translate(-981 -279)"><g transform="translate(-6255 5488)"><rect class="a" width="30" height="30" transform="translate(7236 -5209)"/></g><path d="M131.148-197.649l5.475-6.39a1.035,1.035,0,0,1,.889-.355,1.033,1.033,0,0,1,.8.528,12.377,12.377,0,0,1,1.052,2.771c.532,2.185.236,4.014-.856,5.29-2.1,2.455-2.619,3.042-2.639,3.066a1.03,1.03,0,0,1-.775.35,1.029,1.029,0,0,1-.683-.258,1.033,1.033,0,0,1-.092-1.457c.005-.006.535-.608,2.619-3.043a3.764,3.764,0,0,0,.428-3.418c-.074-.309-.162-.6-.254-.87l-4.4,5.132a1.033,1.033,0,0,1-1.456.112A1.033,1.033,0,0,1,131.148-197.649Zm9.809,12.891a4.526,4.526,0,0,1-4.521,4.521,4.526,4.526,0,0,1-4.521-4.521,4.507,4.507,0,0,1,1.393-3.26L121.736-201.33c-.424,1.331-.671,3.1.259,4.182,2.1,2.451,5.013,5.9,5.042,5.931a1.032,1.032,0,0,1-.014,1.35l-1.484,1.682a4.511,4.511,0,0,1,1.577,3.427,4.526,4.526,0,0,1-4.521,4.521,4.526,4.526,0,0,1-4.521-4.521,4.526,4.526,0,0,1,4.521-4.521,4.517,4.517,0,0,1,1.045.123l1.243-1.409c-.959-1.132-2.927-3.452-4.458-5.241-2.552-2.982-.02-7.749.089-7.95a1.032,1.032,0,0,1,.795-.535,1.031,1.031,0,0,1,.892.349l12.916,14.859a4.506,4.506,0,0,1,1.317-.2A4.526,4.526,0,0,1,140.957-184.757Zm-15.9,0a2.459,2.459,0,0,0-2.456-2.456,2.459,2.459,0,0,0-2.456,2.456A2.459,2.459,0,0,0,122.6-182.3,2.459,2.459,0,0,0,125.052-184.757Zm13.839,0a2.459,2.459,0,0,0-2.456-2.456,2.459,2.459,0,0,0-2.456,2.456,2.458,2.458,0,0,0,2.456,2.456A2.459,2.459,0,0,0,138.891-184.757Z" transform="translate(866.269 485.819)"/></g></svg>