<svg xmlns="http://www.w3.org/2000/svg" width="30" height="30" viewBox="0 0 30 30"><defs><style>.a{fill:none;}</style></defs><g transform="translate(-7236 5209)"><rect class="a" width="30" height="30" transform="translate(7236 -5209)"/><path d="M4991,907l6.407,6.407a1.319,1.319,0,0,0,1.862,0l2.389-2.39a1.315,1.315,0,0,0,0-1.861l-6.407-6.407a1.316,1.316,0,0,0-1.861,0l-2.39,2.39A1.319,1.319,0,0,0,4991,907Zm3.32-2.78,5.868,5.868-1.85,1.85-5.869-5.868Zm14.691,6.534-15.357-15.358a1.132,1.132,0,0,0-1.6,0l-2.152,2.153a1.134,1.134,0,0,0-.253,1.216,2.029,2.029,0,0,1-2.634,2.634,1.13,1.13,0,0,0-1.215.252l-2.153,2.153a1.131,1.131,0,0,0,0,1.6L4999,920.761a1.133,1.133,0,0,0,1.6,0l2.153-2.153a1.131,1.131,0,0,0,.252-1.216,2.03,2.03,0,0,1,2.635-2.634,1.131,1.131,0,0,0,1.215-.252l2.152-2.153A1.131,1.131,0,0,0,5009.012,910.753Zm-3.281,1.681a4.293,4.293,0,0,0-5.045,5.045l-.882.881L4986.047,904.6l.881-.881a4.292,4.292,0,0,0,5.045-5.045l.882-.881,13.757,13.757Z" transform="translate(2255.116 -6102.258)"/></g></svg>