<svg xmlns="http://www.w3.org/2000/svg" width="30" height="30" viewBox="0 0 30 30"><defs><style>.a{fill:none;}</style></defs><g transform="translate(-7236 5209)"><rect class="a" width="30" height="30" transform="translate(7236 -5209)"/><path d="M751.537,4692.967A1.966,1.966,0,0,0,749.57,4691h-20.6a1.966,1.966,0,0,0-1.966,1.967v12.068a1.966,1.966,0,0,0,1.966,1.967h20.6a1.966,1.966,0,0,0,1.966-1.967Zm-2.134.166V4695H729.134v-1.867Zm-20.269,11.735V4698.2H749.4v6.668Zm18.278-3.468a1.067,1.067,0,0,1-1.067,1.067h-5.061a1.067,1.067,0,1,1,0-2.134h5.061A1.067,1.067,0,0,1,747.412,4701.4Z" transform="translate(6511.346 -9892.967)"/></g></svg>