<svg xmlns="http://www.w3.org/2000/svg" width="30" height="30" viewBox="0 0 30 30"><defs><style>.a{fill:none;}</style></defs><g transform="translate(-7236 5209)"><rect class="a" width="30" height="30" transform="translate(7236 -5209)"/><path d="M21.31,6.593,15.082.331a1.123,1.123,0,0,0-.8-.331H2.124A1.124,1.124,0,0,0,1,1.124V21.079A1.124,1.124,0,0,0,2.124,22.2H20.513a1.124,1.124,0,0,0,1.124-1.124V7.386a1.123,1.123,0,0,0-.327-.793M19.386,7.87H13.768V2.248h.05ZM3.248,19.955V2.248h8.271V8.971a1.121,1.121,0,0,0,1.1,1.147h6.772v9.837Z" transform="translate(7239.531 -5205.71)"/></g></svg>