<svg xmlns="http://www.w3.org/2000/svg" width="30" height="30" viewBox="0 0 30 30"><defs><style>.a{fill:none;}</style></defs><g transform="translate(-6059 5539)"><g transform="translate(-1177 -330)"><rect class="a" width="30" height="30" transform="translate(7236 -5209)"/><path d="M4855.9,940.474v4.9a1.031,1.031,0,0,1-1.023,1.072h-13.987a1.073,1.073,0,0,1-1.072-1.072v-17.69a1.072,1.072,0,0,1,1.072-1.072h13.987a1.031,1.031,0,0,1,1.023,1.072v4.9a1.073,1.073,0,0,1-2.145,0v-3.831h-11.793V944.3h11.793v-3.831a1.073,1.073,0,0,1,2.145,0Zm8.267-4.733-4.2-4.242a1.072,1.072,0,1,0-1.524,1.509l2.4,2.421-13.009.031a1.072,1.072,0,0,0,0,2.144h0l12.994-.031-2.387,2.41a1.072,1.072,0,0,0,1.524,1.509l4.2-4.242A1.072,1.072,0,0,0,4864.163,935.741Z" transform="translate(2401.019 -6130.881)"/></g></g></svg>