<svg xmlns="http://www.w3.org/2000/svg" width="30" height="30" viewBox="0 0 30 30"><defs><style>.a{fill:none;}</style></defs><g transform="translate(-7236 5209)"><rect class="a" width="30" height="30" transform="translate(7236 -5209)"/><path d="M21.773,19.525c-1.83,0-2.54-1.065-2.54-7.755,0-5.243-2.376-8.52-6.472-9.012V1.092a1.092,1.092,0,1,0-2.185,0V2.731c-4.369.355-6.909,3.687-6.909,9.039,0,6.69-.792,7.755-2.649,7.755A1.057,1.057,0,0,0-.1,20.563,1.027,1.027,0,0,0,.965,21.6h7.1a4.409,4.409,0,0,0,.983,2.54,2.952,2.952,0,0,0,2.239.983,3.051,3.051,0,0,0,2.239-.983,4.608,4.608,0,0,0,1.065-2.54h7.182a1.034,1.034,0,0,0,1.092-1.038A1.05,1.05,0,0,0,21.773,19.525ZM12,22.638a.818.818,0,0,1-.655.273.8.8,0,0,1-.628-.273,1.848,1.848,0,0,1-.41-1.065h2.157A1.846,1.846,0,0,1,12,22.638Zm-.464-3.222H4.788C5.8,17.5,5.8,14.528,5.8,11.742c0-4.451,1.939-6.8,5.434-6.8h.3c3.5,0,5.434,2.348,5.434,6.8,0,2.785,0,5.762,1.01,7.673Z" transform="translate(7239.628 -5206.876)"/></g></svg>