<svg xmlns="http://www.w3.org/2000/svg" width="30" height="30" viewBox="0 0 30 30"><defs><style>.a{fill:none;}</style></defs><g transform="translate(-7236 5209)"><rect class="a" width="30" height="30" transform="translate(7236 -5209)"/><path d="M23.459,6.674H20.526a.6.6,0,0,1-.027-.107L15.461.409A1.061,1.061,0,0,0,13.969.25a1.126,1.126,0,0,0-.16,1.546l3.972,4.878H6.744L10.716,1.8a1.069,1.069,0,0,0-.16-1.519A1.058,1.058,0,0,0,9.064.409L4.025,6.567A.269.269,0,0,1,4,6.647H1.066A.983.983,0,0,0,0,7.607v4a1.192,1.192,0,0,0,1.066,1.2h.347l2,8.1a1.962,1.962,0,0,0,2,1.493h13.7a2.011,2.011,0,0,0,2-1.493l2-8.1h.347a1.166,1.166,0,0,0,1.066-1.173v-4A.983.983,0,0,0,23.459,6.674ZM2.133,8.807h20.26v1.866H2.133ZM19.06,20.269H5.465L3.6,12.805H20.926Z" transform="translate(7238.567 -5205.173)"/></g></svg>