<svg xmlns="http://www.w3.org/2000/svg" width="30" height="30" viewBox="0 0 30 30"><defs><style>.a{fill:none;}</style></defs><g transform="translate(-7236 5209)"><rect class="a" width="30" height="30" transform="translate(7236 -5209)"/><path d="M23.4,5.241a1.206,1.206,0,0,0,1.71-.087,1.223,1.223,0,0,0-.087-1.72l-1.563-1.42h0L21.886.585a1.206,1.206,0,0,0-1.709.087,1.222,1.222,0,0,0,.087,1.719l.665.6L19.706,4.344a12.286,12.286,0,0,0-4.759-2.165,2.453,2.453,0,0,0-.48-1.223A2.6,2.6,0,0,0,12.385,0h-.049a2.551,2.551,0,0,0-2,.842,2.585,2.585,0,0,0-.58,1.334A12.363,12.363,0,1,0,21.5,5.978l1.223-1.349ZM12.346,24.2a9.93,9.93,0,1,1,9.926-9.93,9.939,9.939,0,0,1-9.926,9.93m2.118-9.93a2.106,2.106,0,0,1-2.1,2.093A2.074,2.074,0,0,1,10.3,14.265a1.928,1.928,0,0,1,.9-1.7V7.657a1.21,1.21,0,1,1,2.421,0v4.91a1.883,1.883,0,0,1,.847,1.7" transform="translate(7238.223 -5207.787)"/></g></svg>