<svg xmlns="http://www.w3.org/2000/svg" width="30" height="30" viewBox="0 0 30 30"><defs><style>.a{fill:none;}</style></defs><g transform="translate(-7236 5209)"><rect class="a" width="30" height="30" transform="translate(7236 -5209)"/><path d="M2071.741,2477.084a5.34,5.34,0,1,1,5.339-5.339A5.346,5.346,0,0,1,2071.741,2477.084Zm0-8.719a3.379,3.379,0,1,0,3.379,3.38A3.383,3.383,0,0,0,2071.741,2468.365Zm0,16.115h-.151a16.194,16.194,0,0,1-1.843-.111.98.98,0,0,1-.846-.838l-.274-1.982a10.238,10.238,0,0,1-1.758-.745l-1.566,1.177a.981.981,0,0,1-1.188-.008,16.425,16.425,0,0,1-1.382-1.225l-.106-.106a16.284,16.284,0,0,1-1.225-1.382.98.98,0,0,1-.006-1.191l1.21-1.6a10.207,10.207,0,0,1-.717-1.767l-1.942-.275a.98.98,0,0,1-.835-.846,16.3,16.3,0,0,1-.111-1.844v-.15a16.261,16.261,0,0,1,.111-1.843.979.979,0,0,1,.839-.846l1.986-.273a10.233,10.233,0,0,1,.744-1.753l-1.182-1.572a.98.98,0,0,1,.008-1.188,16.277,16.277,0,0,1,1.225-1.382l.107-.107a16.172,16.172,0,0,1,1.382-1.225.98.98,0,0,1,1.192-.005l1.6,1.214a10.165,10.165,0,0,1,1.762-.714l.276-1.948a.981.981,0,0,1,.846-.835,16.24,16.24,0,0,1,1.844-.111h.151a16.2,16.2,0,0,1,1.843.111.98.98,0,0,1,.847.839l.272,1.989a10.2,10.2,0,0,1,1.752.741l1.573-1.182a.98.98,0,0,1,1.188.008,16.313,16.313,0,0,1,1.382,1.225l.107.106a16.213,16.213,0,0,1,1.225,1.382.98.98,0,0,1,0,1.192l-1.212,1.6a10.258,10.258,0,0,1,.716,1.764l1.945.277a.98.98,0,0,1,.834.846,16.152,16.152,0,0,1,.111,1.843v.151a16.163,16.163,0,0,1-.111,1.843.98.98,0,0,1-.839.846l-1.984.272a10.211,10.211,0,0,1-.744,1.755l1.18,1.571a.98.98,0,0,1-.009,1.188,16.187,16.187,0,0,1-1.224,1.382l-.106.107a16.245,16.245,0,0,1-1.383,1.225.979.979,0,0,1-1.192,0l-1.6-1.215a10.162,10.162,0,0,1-1.76.713l-.277,1.952a.981.981,0,0,1-.846.834A16.224,16.224,0,0,1,2071.74,2484.48Zm-1.005-1.989c.252.016.548.029.854.029h.151c.309,0,.605-.013.858-.029l.259-1.827a.979.979,0,0,1,.751-.817,8.285,8.285,0,0,0,2.435-.986.982.982,0,0,1,1.134.085l1.456,1.105c.19-.166.407-.366.624-.583l.107-.106c.218-.218.419-.437.586-.627l-1.1-1.47a.98.98,0,0,1-.046-1.11,8.26,8.26,0,0,0,1.01-2.353.976.976,0,0,1,.83-.8l1.853-.254c.016-.252.029-.548.029-.854v-.151c0-.308-.013-.605-.03-.858l-1.82-.259a.981.981,0,0,1-.817-.751,8.235,8.235,0,0,0-.971-2.408.982.982,0,0,1,.04-1.126l1.13-1.49c-.166-.189-.367-.408-.583-.624l-.107-.107c-.218-.218-.437-.419-.627-.586l-1.474,1.108a.978.978,0,0,1-1.167.008,8.262,8.262,0,0,0-2.359-.988.979.979,0,0,1-.737-.818l-.253-1.853c-.252-.016-.548-.029-.854-.029h-.151c-.308,0-.6.013-.858.029l-.259,1.826a.98.98,0,0,1-.821.831,8.251,8.251,0,0,0-2.366.97.98.98,0,0,1-1.141-.091l-1.448-1.1c-.189.167-.407.367-.624.584l-.107.106c-.219.219-.419.438-.585.627l1.107,1.474a.98.98,0,0,1,.056,1.1q-.026.043-.056.083a8.256,8.256,0,0,0-.982,2.347.98.98,0,0,1-.818.736l-1.85.254c-.017.252-.029.547-.029.854v.15c0,.308.013.6.029.858l1.826.259a.981.981,0,0,1,.833.833c0,.013,0,.024,0,.037a8.262,8.262,0,0,0,.959,2.32.981.981,0,0,1-.092,1.142l-1.093,1.443c.167.189.367.408.584.625l.107.107c.218.218.437.419.626.586l1.475-1.108a.979.979,0,0,1,1.219.033,8.247,8.247,0,0,0,2.305.955.981.981,0,0,1,.737.817Z" transform="translate(5179.615 -7665.385)"/></g></svg>