<svg xmlns="http://www.w3.org/2000/svg" width="30" height="30" viewBox="0 0 30 30"><defs><style>.a{fill:none;}</style></defs><g transform="translate(-7236 5209)"><rect class="a" width="30" height="30" transform="translate(7236 -5209)"/><path d="M1848.551,2237h-.017a11.534,11.534,0,0,0-.017,23.068h.017a11.534,11.534,0,0,0,.017-23.068Zm.986,21.01v-4.577a1,1,0,0,0-2.006,0v4.574a9.5,9.5,0,0,1-8.472-8.471h4.575a1,1,0,1,0,0-2.006h-4.575a9.484,9.484,0,0,1,8.472-8.474v4.577a1,1,0,1,0,2.006,0v-4.574a9.5,9.5,0,0,1,8.472,8.47h-4.576a1,1,0,1,0,0,2.006h4.576A9.483,9.483,0,0,1,1849.537,2258.011Z" transform="translate(5402.215 -7442.785)"/></g></svg>