<svg xmlns="http://www.w3.org/2000/svg" width="30" height="30" viewBox="0 0 30 30"><defs><style>.a{fill:none;}</style></defs><g transform="translate(-7236 5209)"><rect class="a" width="30" height="30" transform="translate(7236 -5209)"/><path d="M3000.217,1605.717c-3.374,0-8.671-1.117-9.982-2.047a1.086,1.086,0,0,1-.459-.886v-10.629a1.085,1.085,0,0,1,.415-.853,33.359,33.359,0,0,1,3.98-2.652c2.474-1.358,4.179-3.271,4.585-4.46.5-1.469,1.188-3.481,3.417-3.481a2.549,2.549,0,0,1,2.383,1.638c.926,2.111-.049,5.043-1.675,7.362,1.094.257,2.453.59,3.25.839a3.627,3.627,0,0,1,2.679,2.869,4.088,4.088,0,0,1-1.927,3.8c-1.047,2.851-2.878,7.37-4.208,8.11A5.624,5.624,0,0,1,3000.217,1605.717Zm-8.254-3.578c2.074.871,8.422,1.778,9.627,1.3.637-.576,2.238-4.2,3.355-7.278a1.086,1.086,0,0,1,.419-.534c.9-.6,1.371-1.295,1.284-1.9a1.52,1.52,0,0,0-1.171-1.105c-1.373-.43-4.739-1.172-4.773-1.179a1.086,1.086,0,0,1-.565-1.8c2.455-2.631,2.89-5.341,2.415-6.425-.146-.333-.3-.333-.379-.333-.539,0-.791.375-1.347,2.005-.652,1.907-2.9,4.184-5.6,5.665a30.3,30.3,0,0,0-3.265,2.138Zm-4.3,1.078V1591.5a1.162,1.162,0,0,0-2.325,0v11.72a1.162,1.162,0,0,0,2.325,0Z" transform="translate(4253.662 -6788.717)"/></g></svg>