<svg xmlns="http://www.w3.org/2000/svg" width="30" height="30" viewBox="0 0 30 30"><defs><style>.a{fill:none;}</style></defs><g transform="translate(-7236 5209)"><rect class="a" width="30" height="30" transform="translate(7236 -5209)"/><path d="M1861.794,3364.436l-6.5-6.5a1.092,1.092,0,0,0-1.544,0l-2.135,2.134-2.579-2.579,2.135-2.134a1.092,1.092,0,0,0,0-1.544l-6.5-6.5a1.092,1.092,0,0,0-1.544,0l-5.814,5.813a1.092,1.092,0,0,0,0,1.544l6.5,6.5a1.093,1.093,0,0,0,1.544,0l2.134-2.135,2.579,2.579-2.134,2.134a1.092,1.092,0,0,0,0,1.544l6.5,6.5a1.092,1.092,0,0,0,1.544,0l5.813-5.813A1.092,1.092,0,0,0,1861.794,3364.436Zm-17.2-5.578-4.952-4.953,4.269-4.268,4.952,4.952-1.362,1.363-.83-.83a1.092,1.092,0,0,0-1.544,1.544l.83.83Zm10.62,10.619-4.953-4.953,1.362-1.362.83.83a1.092,1.092,0,0,0,1.544-1.544l-.83-.83,1.362-1.362,4.953,4.953Z" transform="translate(5401.573 -8553.427)"/></g></svg>