<svg xmlns="http://www.w3.org/2000/svg" width="30" height="30" viewBox="0 0 30 30"><defs><style>.a{fill:none;}</style></defs><g transform="translate(-7236 5209)"><rect class="a" width="30" height="30" transform="translate(7236 -5209)"/><path d="M2860.476,2413.27l-1.567,1.592a9.66,9.66,0,1,1-2.553-3.326l-5.97,5.97-3.852-3.852a.946.946,0,0,0-1.338,1.339l3.852,3.852-3.852,3.852a.946.946,0,0,0,1.338,1.338l3.852-3.852,3.852,3.852a.946.946,0,0,0,1.338-1.338l-3.852-3.852,5.958-5.958.021.026,1.506-1.5a11.7,11.7,0,1,0,1.267,1.861Z" transform="translate(4400.971 -7612.744)"/></g></svg>