<svg xmlns="http://www.w3.org/2000/svg" width="30" height="30" viewBox="0 0 30 30"><defs><style>.a{fill:none;}</style></defs><g transform="translate(-7236 5209)"><rect class="a" width="30" height="30" transform="translate(7236 -5209)"/><path d="M23.062,21.217l-6.947-6.8a8.774,8.774,0,0,0,1.9-5.477A9.009,9.009,0,0,0,0,8.937a8.982,8.982,0,0,0,9.023,8.937A8.8,8.8,0,0,0,14.241,16.2l7.005,6.861a1.244,1.244,0,0,0,.894.375,1.262,1.262,0,0,0,.922-.375A1.341,1.341,0,0,0,23.062,21.217ZM2.306,8.937a6.669,6.669,0,0,1,6.717-6.63,6.669,6.669,0,0,1,6.717,6.63,6.717,6.717,0,0,1-13.434,0Z" transform="translate(7240.136 -5205.566)"/></g></svg>