<svg xmlns="http://www.w3.org/2000/svg" width="30" height="30" viewBox="0 0 30 30"><defs><style>.a{fill:none;}</style></defs><g transform="translate(-7236 5209)"><rect class="a" width="30" height="30" transform="translate(7236 -5209)"/><path d="M978.307,3807.193l-3.411,10.782a1.809,1.809,0,0,1-1.737,1.261H959.972a1.892,1.892,0,0,1-1.757-1.172l-5.024-13.511h-2.914a1.276,1.276,0,1,1,0-2.553h3.8a1.318,1.318,0,0,1,1.2.858l5.21,13.825h12.14l2.728-8.618H960.3a1.277,1.277,0,1,1,0-2.553H977.09a1.3,1.3,0,0,1,1.029.542A1.28,1.28,0,0,1,978.307,3807.193Zm-17.685,13.748a2.1,2.1,0,0,0-1.468.6,2.056,2.056,0,0,0,0,2.917,2.086,2.086,0,0,0,2.933,0,2.06,2.06,0,0,0-1.465-3.519Zm11.456,0a2.094,2.094,0,0,0-1.468.6,2.057,2.057,0,0,0,0,2.917,2.076,2.076,0,0,0,3.543-1.458,2.069,2.069,0,0,0-2.075-2.06Z" transform="translate(6286.999 -9007.71)"/></g></svg>