<svg xmlns="http://www.w3.org/2000/svg" width="30" height="30" viewBox="0 0 30 30"><defs><style>.a{fill:none;}</style></defs><g transform="translate(-7236 5209)"><rect class="a" width="30" height="30" transform="translate(7236 -5209)"/><path d="M1196.659,2251.289a1.163,1.163,0,0,1-.815-.332l-11.431-11.161-11.432,11.161a1.166,1.166,0,1,1-1.629-1.669l12.246-11.958a1.167,1.167,0,0,1,1.63,0l12.246,11.958a1.166,1.166,0,0,1-.815,2Zm-2.553,9.581v-9.609a1.166,1.166,0,0,0-2.332,0v8.443h-3.644v-6.236a1.549,1.549,0,0,0-1.548-1.547h-4.338a1.55,1.55,0,0,0-1.548,1.547v6.236h-3.644v-8.443a1.166,1.166,0,0,0-2.333,0v9.609a1.167,1.167,0,0,0,1.166,1.167h5.976a1.166,1.166,0,0,0,1.166-1.167v-6.618h2.769v6.618a1.167,1.167,0,0,0,1.166,1.167h5.977A1.166,1.166,0,0,0,1194.106,2260.871Z" transform="translate(6066.456 -7444.297)"/></g></svg>