<svg xmlns="http://www.w3.org/2000/svg" width="30" height="30" viewBox="0 0 30 30"><defs><style>.a{fill:none;}</style></defs><g transform="translate(-7236 5209)"><rect class="a" width="30" height="30" transform="translate(7236 -5209)"/><g transform="translate(7239.12 -5204.566)"><path d="M17.6,17.174H1.209A1.213,1.213,0,0,1,0,15.964V1.209A1.213,1.213,0,0,1,1.209,0H17.6a1.213,1.213,0,0,1,1.209,1.209V15.964A1.194,1.194,0,0,1,17.6,17.174ZM2.419,14.755H16.388V2.419H2.419Z"/><path d="M33.9,32.674H17.509a1.209,1.209,0,0,1,0-2.419H32.688V16.709a1.209,1.209,0,1,1,2.419,0V31.464A1.213,1.213,0,0,1,33.9,32.674Z" transform="translate(-11.372 -10.813)"/></g></g></svg>