<svg xmlns="http://www.w3.org/2000/svg" width="30" height="30" viewBox="0 0 30 30"><defs><style>.a{fill:none;}</style></defs><g transform="translate(-6059 5599)"><g transform="translate(-1177 -390)"><rect class="a" width="30" height="30" transform="translate(7236 -5209)"/><path d="M0,14.786a1.138,1.138,0,0,0,.851,1.071.76.76,0,0,0,.247.027,1.1,1.1,0,0,0,.934-.549c1.9-3.351,7.031-3.57,9.228-3.516v2.966A1.159,1.159,0,0,0,12,15.8a1.2,1.2,0,0,0,1.263-.247l6.756-6.866a1.111,1.111,0,0,0,0-1.538L13.238.284A1.141,1.141,0,0,0,12,.037a1.159,1.159,0,0,0-.742,1.016V3.992A12.305,12.305,0,0,0,3.1,7.288,11.416,11.416,0,0,0,0,14.786Zm2.939-3.378C4.01,8.99,6.509,6.162,12.414,6.162a1.056,1.056,0,0,0,1.044-1.1V3.745l4.12,4.175-4.12,4.175V10.776a1.054,1.054,0,0,0-.906-1.1C12.249,9.65,6.839,9.1,2.939,11.407ZM22.631,7.919l-6.015-6.1a1.146,1.146,0,0,1,0-1.566,1.086,1.086,0,0,1,1.538,0l6.756,6.866a1.111,1.111,0,0,1,0,1.538l-6.756,6.866a1.1,1.1,0,0,1-1.538-1.566Z" transform="translate(7238.215 -5201.784)"/></g></g></svg>