<svg xmlns="http://www.w3.org/2000/svg" width="30" height="30" viewBox="0 0 30 30"><defs><style>.a{fill:none;}</style></defs><g transform="translate(-101 -279)"><rect class="a" width="30" height="30" transform="translate(101 279)"/><path d="M24.985,1.239V21.683a1.24,1.24,0,0,1-1.239,1.239H7.582A1.192,1.192,0,0,1,6.4,21.683V16.017a1.239,1.239,0,1,1,2.478,0v4.427H22.507V2.478H8.878V6.906a1.239,1.239,0,1,1-2.478,0V1.239A1.191,1.191,0,0,1,7.582,0H23.746a1.239,1.239,0,0,1,1.239,1.239M13.5,15.492a1.239,1.239,0,1,0,1.761,1.744l4.854-4.9a1.239,1.239,0,0,0,0-1.744l-4.854-4.9A1.239,1.239,0,1,0,13.5,7.43l2.771,2.8-15.034.036a1.239,1.239,0,0,0,0,2.478h0l15.015-.036Z" transform="translate(101.011 282.397)"/></g></svg>