<svg xmlns="http://www.w3.org/2000/svg" width="30" height="30" viewBox="0 0 30 30"><defs><style>.a{fill:none;}</style></defs><g transform="translate(-7236 5209)"><rect class="a" width="30" height="30" transform="translate(7236 -5209)"/><path d="M2528.053,1591.066a.955.955,0,0,0-.012-.121c0-.031-.006-.063-.013-.094a1,1,0,0,0-.032-.1c-.011-.034-.021-.069-.035-.1s-.03-.055-.045-.082a1.08,1.08,0,0,0-.063-.1c0-.007-.007-.014-.012-.02a.728.728,0,0,0-.049-.054.948.948,0,0,0-.078-.086,1.037,1.037,0,0,0-.082-.068.937.937,0,0,0-.084-.062c-.031-.02-.063-.036-.1-.052a.989.989,0,0,0-.094-.044c-.034-.013-.069-.023-.1-.032s-.065-.018-.1-.024a.983.983,0,0,0-.121-.012c-.023,0-.045-.007-.069-.007H2504.09c-.024,0-.046.005-.071.007a1.079,1.079,0,0,0-.119.012.962.962,0,0,0-.1.024c-.035.01-.07.019-.1.032a.9.9,0,0,0-.094.044.886.886,0,0,0-.095.051.937.937,0,0,0-.084.062,1.056,1.056,0,0,0-.082.068.948.948,0,0,0-.078.086c-.016.019-.035.034-.05.054s-.007.014-.012.02a1.153,1.153,0,0,0-.063.1c-.015.027-.032.054-.044.083s-.024.068-.036.1-.024.067-.032.1-.009.062-.013.094a1.111,1.111,0,0,0-.012.121c0,.008,0,.015,0,.023v15.523a1.09,1.09,0,0,0,1.09,1.089h22.876a1.09,1.09,0,0,0,1.089-1.089v-15.523C2528.055,1591.081,2528.053,1591.074,2528.053,1591.066Zm-4.381,1.113-8.144,6.047-8.145-6.047Zm-18.492,13.344v-12.268l9.7,7.2a1.088,1.088,0,0,0,1.3,0l9.7-7.2v12.268Z" transform="translate(4735.379 -6792.536)"/></g></svg>